<svg xmlns="http://www.w3.org/2000/svg" xmlns:xlink="http://www.w3.org/1999/xlink" width="500" zoomAndPan="magnify" viewBox="0 0 375 262.499992" height="350" preserveAspectRatio="xMidYMid meet" version="1.2"><g id="2fcd64e01c"><path style=" stroke:none;fill-rule:nonzero;fill:#ffffff;fill-opacity:1;" d="M 216.246094 201.964844 C 215.875 201.964844 215.503906 202 215.140625 202.074219 C 214.777344 202.144531 214.421875 202.253906 214.082031 202.394531 C 213.738281 202.539062 213.410156 202.710938 213.101562 202.917969 C 212.792969 203.125 212.507812 203.359375 212.246094 203.621094 C 211.980469 203.886719 211.746094 204.171875 211.542969 204.480469 C 211.335938 204.789062 211.160156 205.113281 211.019531 205.457031 C 210.875 205.800781 210.769531 206.15625 210.695312 206.519531 C 210.625 206.882812 210.589844 207.25 210.589844 207.621094 C 210.589844 207.992188 210.625 208.363281 210.695312 208.726562 C 210.769531 209.089844 210.875 209.445312 211.019531 209.789062 C 211.160156 210.128906 211.335938 210.457031 211.542969 210.765625 C 211.746094 211.074219 211.980469 211.359375 212.246094 211.621094 C 212.507812 211.886719 212.792969 212.121094 213.101562 212.324219 C 213.410156 212.53125 213.738281 212.707031 214.082031 212.847656 C 214.421875 212.992188 214.777344 213.097656 215.140625 213.171875 C 215.503906 213.242188 215.875 213.28125 216.246094 213.28125 C 216.617188 213.28125 216.984375 213.242188 217.347656 213.171875 C 217.714844 213.097656 218.066406 212.992188 218.410156 212.847656 C 218.753906 212.707031 219.078125 212.53125 219.386719 212.324219 C 219.695312 212.121094 219.984375 211.886719 220.246094 211.621094 C 220.507812 211.359375 220.742188 211.074219 220.949219 210.765625 C 221.15625 210.457031 221.328125 210.128906 221.472656 209.789062 C 221.613281 209.445312 221.722656 209.089844 221.792969 208.726562 C 221.867188 208.363281 221.902344 207.992188 221.902344 207.621094 C 221.902344 207.25 221.867188 206.882812 221.792969 206.519531 C 221.722656 206.15625 221.613281 205.800781 221.472656 205.457031 C 221.328125 205.113281 221.15625 204.789062 220.949219 204.480469 C 220.742188 204.171875 220.507812 203.886719 220.246094 203.621094 C 219.984375 203.359375 219.695312 203.125 219.386719 202.917969 C 219.078125 202.710938 218.753906 202.539062 218.410156 202.394531 C 218.066406 202.253906 217.714844 202.144531 217.347656 202.074219 C 216.984375 202 216.617188 201.964844 216.246094 201.964844 Z M 113.460938 0.449219 C 112.707031 0.449219 111.957031 0.484375 111.210938 0.554688 C 110.460938 0.628906 109.71875 0.738281 108.980469 0.882812 C 108.242188 1.027344 107.511719 1.210938 106.792969 1.425781 C 106.074219 1.644531 105.367188 1.894531 104.671875 2.183594 C 103.976562 2.46875 103.296875 2.789062 102.632812 3.144531 C 101.96875 3.5 101.324219 3.882812 100.699219 4.300781 C 100.074219 4.71875 99.46875 5.167969 98.890625 5.644531 C 98.308594 6.121094 97.75 6.625 97.21875 7.15625 C 96.6875 7.6875 96.183594 8.246094 95.707031 8.828125 C 95.230469 9.40625 94.78125 10.011719 94.363281 10.636719 C 93.945312 11.261719 93.5625 11.90625 93.207031 12.570312 C 92.851562 13.234375 92.53125 13.914062 92.246094 14.609375 C 91.957031 15.304688 91.707031 16.011719 91.488281 16.730469 C 91.269531 17.449219 91.089844 18.179688 90.945312 18.917969 C 90.796875 19.65625 90.691406 20.398438 90.617188 21.148438 C 90.546875 21.894531 90.511719 22.644531 90.511719 23.398438 C 90.511719 24.148438 90.546875 24.902344 90.617188 25.648438 C 90.691406 26.398438 90.796875 27.140625 90.945312 27.878906 C 91.089844 28.617188 91.269531 29.34375 91.488281 30.066406 C 91.707031 30.785156 91.957031 31.492188 92.246094 32.1875 C 92.53125 32.882812 92.851562 33.5625 93.207031 34.226562 C 93.5625 34.890625 93.945312 35.535156 94.363281 36.160156 C 94.78125 36.785156 95.230469 37.386719 95.707031 37.96875 C 96.183594 38.550781 96.6875 39.109375 97.21875 39.640625 C 97.75 40.171875 98.308594 40.675781 98.890625 41.152344 C 99.46875 41.628906 100.074219 42.078125 100.699219 42.496094 C 101.324219 42.914062 101.96875 43.296875 102.632812 43.652344 C 103.296875 44.007812 103.976562 44.328125 104.671875 44.613281 C 105.367188 44.902344 106.074219 45.152344 106.792969 45.371094 C 107.511719 45.585938 108.242188 45.769531 108.980469 45.914062 C 109.71875 46.058594 110.460938 46.167969 111.210938 46.242188 C 111.957031 46.3125 112.707031 46.347656 113.460938 46.347656 L 265.617188 46.347656 C 266.371094 46.347656 267.121094 46.3125 267.871094 46.242188 C 268.617188 46.167969 269.363281 46.058594 270.097656 45.914062 C 270.835938 45.769531 271.566406 45.585938 272.285156 45.371094 C 273.007812 45.152344 273.714844 44.902344 274.410156 44.613281 C 275.105469 44.328125 275.78125 44.003906 276.445312 43.652344 C 277.109375 43.296875 277.753906 42.914062 278.378906 42.496094 C 279.003906 42.078125 279.609375 41.628906 280.191406 41.152344 C 280.773438 40.675781 281.328125 40.171875 281.859375 39.640625 C 282.390625 39.109375 282.898438 38.550781 283.375 37.96875 C 283.851562 37.386719 284.296875 36.785156 284.714844 36.160156 C 285.132812 35.535156 285.519531 34.890625 285.871094 34.226562 C 286.226562 33.5625 286.546875 32.882812 286.835938 32.1875 C 287.121094 31.492188 287.375 30.785156 287.589844 30.066406 C 287.808594 29.34375 287.988281 28.617188 288.136719 27.878906 C 288.28125 27.140625 288.390625 26.398438 288.460938 25.648438 C 288.535156 24.902344 288.570312 24.148438 288.566406 23.398438 C 288.570312 22.644531 288.535156 21.894531 288.460938 21.148438 C 288.390625 20.398438 288.28125 19.65625 288.136719 18.917969 C 287.988281 18.179688 287.808594 17.449219 287.589844 16.730469 C 287.375 16.011719 287.121094 15.304688 286.835938 14.609375 C 286.546875 13.914062 286.226562 13.234375 285.871094 12.570312 C 285.519531 11.90625 285.132812 11.261719 284.714844 10.636719 C 284.296875 10.011719 283.851562 9.40625 283.375 8.828125 C 282.898438 8.246094 282.390625 7.6875 281.859375 7.15625 C 281.328125 6.625 280.773438 6.121094 280.191406 5.644531 C 279.609375 5.167969 279.003906 4.71875 278.378906 4.300781 C 277.753906 3.882812 277.109375 3.5 276.445312 3.144531 C 275.78125 2.789062 275.105469 2.46875 274.410156 2.183594 C 273.714844 1.894531 273.007812 1.644531 272.285156 1.425781 C 271.566406 1.210938 270.835938 1.027344 270.097656 0.882812 C 269.363281 0.738281 268.617188 0.628906 267.871094 0.554688 C 267.121094 0.484375 266.371094 0.449219 265.617188 0.449219 Z M 85.164062 72.179688 C 84.414062 72.175781 83.664062 72.210938 82.914062 72.285156 C 82.164062 72.355469 81.421875 72.464844 80.683594 72.613281 C 79.945312 72.757812 79.21875 72.9375 78.496094 73.15625 C 77.777344 73.375 77.070312 73.625 76.375 73.914062 C 75.679688 74.199219 75 74.519531 74.335938 74.875 C 73.671875 75.226562 73.027344 75.613281 72.402344 76.03125 C 71.777344 76.449219 71.175781 76.894531 70.59375 77.371094 C 70.011719 77.851562 69.453125 78.355469 68.921875 78.886719 C 68.390625 79.417969 67.886719 79.972656 67.410156 80.554688 C 66.933594 81.136719 66.484375 81.742188 66.066406 82.367188 C 65.652344 82.992188 65.265625 83.636719 64.910156 84.300781 C 64.558594 84.964844 64.238281 85.644531 63.949219 86.335938 C 63.664062 87.03125 63.410156 87.742188 63.191406 88.460938 C 62.976562 89.179688 62.792969 89.910156 62.648438 90.648438 C 62.503906 91.386719 62.394531 92.128906 62.320312 92.875 C 62.25 93.625 62.214844 94.375 62.214844 95.128906 C 62.214844 95.878906 62.25 96.628906 62.320312 97.378906 C 62.394531 98.128906 62.503906 98.871094 62.648438 99.609375 C 62.792969 100.347656 62.972656 101.074219 63.191406 101.796875 C 63.410156 102.515625 63.660156 103.222656 63.949219 103.917969 C 64.234375 104.613281 64.554688 105.292969 64.910156 105.957031 C 65.261719 106.621094 65.648438 107.265625 66.066406 107.890625 C 66.484375 108.515625 66.929688 109.121094 67.40625 109.703125 C 67.886719 110.285156 68.390625 110.839844 68.921875 111.371094 C 69.453125 111.90625 70.007812 112.410156 70.589844 112.886719 C 71.171875 113.363281 71.777344 113.8125 72.402344 114.226562 C 73.027344 114.644531 73.671875 115.03125 74.335938 115.386719 C 75 115.738281 75.679688 116.058594 76.375 116.347656 C 77.070312 116.632812 77.777344 116.886719 78.496094 117.105469 C 79.214844 117.320312 79.945312 117.503906 80.683594 117.648438 C 81.421875 117.792969 82.164062 117.902344 82.914062 117.976562 C 83.660156 118.046875 84.414062 118.082031 85.164062 118.082031 L 114.171875 118.082031 C 115.019531 118.082031 115.859375 118.160156 116.691406 118.324219 C 117.523438 118.488281 118.332031 118.734375 119.117188 119.058594 C 119.902344 119.382812 120.648438 119.777344 121.351562 120.25 C 122.058594 120.722656 122.710938 121.257812 123.308594 121.855469 C 123.910156 122.457031 124.445312 123.109375 124.917969 123.816406 C 125.386719 124.519531 125.785156 125.265625 126.109375 126.050781 C 126.433594 126.832031 126.675781 127.640625 126.839844 128.472656 C 127.003906 129.304688 127.085938 130.148438 127.085938 130.996094 C 127.085938 131.84375 127.003906 132.683594 126.839844 133.515625 C 126.675781 134.347656 126.433594 135.15625 126.109375 135.941406 C 125.785156 136.726562 125.386719 137.46875 124.917969 138.175781 C 124.445312 138.882812 123.910156 139.535156 123.308594 140.132812 C 122.710938 140.734375 122.058594 141.269531 121.351562 141.738281 C 120.648438 142.210938 119.902344 142.609375 119.117188 142.933594 C 118.332031 143.257812 117.523438 143.5 116.691406 143.664062 C 115.859375 143.828125 115.019531 143.910156 114.171875 143.90625 L 56.875 143.90625 C 56.121094 143.90625 55.371094 143.941406 54.621094 144.011719 C 53.875 144.085938 53.128906 144.195312 52.390625 144.339844 C 51.652344 144.484375 50.925781 144.667969 50.203125 144.882812 C 49.484375 145.101562 48.777344 145.355469 48.082031 145.640625 C 47.386719 145.929688 46.707031 146.25 46.042969 146.601562 C 45.378906 146.957031 44.734375 147.34375 44.109375 147.757812 C 43.484375 148.175781 42.878906 148.625 42.296875 149.101562 C 41.714844 149.578125 41.160156 150.082031 40.625 150.617188 C 40.09375 151.148438 39.589844 151.703125 39.113281 152.285156 C 38.636719 152.867188 38.1875 153.472656 37.769531 154.097656 C 37.355469 154.722656 36.96875 155.367188 36.613281 156.03125 C 36.261719 156.695312 35.9375 157.375 35.652344 158.070312 C 35.363281 158.765625 35.113281 159.472656 34.894531 160.191406 C 34.679688 160.914062 34.496094 161.640625 34.351562 162.378906 C 34.207031 163.117188 34.097656 163.863281 34.023438 164.609375 C 33.953125 165.359375 33.917969 166.109375 33.917969 166.863281 C 33.917969 167.613281 33.953125 168.363281 34.027344 169.113281 C 34.097656 169.863281 34.207031 170.605469 34.351562 171.34375 C 34.496094 172.082031 34.679688 172.808594 34.898438 173.53125 C 35.113281 174.25 35.367188 174.957031 35.652344 175.652344 C 35.941406 176.347656 36.261719 177.027344 36.617188 177.691406 C 36.96875 178.355469 37.355469 179 37.773438 179.625 C 38.191406 180.25 38.636719 180.855469 39.113281 181.4375 C 39.59375 182.015625 40.097656 182.574219 40.628906 183.105469 C 41.160156 183.636719 41.71875 184.140625 42.300781 184.617188 C 42.878906 185.097656 43.484375 185.542969 44.109375 185.960938 C 44.734375 186.378906 45.378906 186.765625 46.042969 187.117188 C 46.707031 187.472656 47.386719 187.792969 48.082031 188.078125 C 48.777344 188.367188 49.484375 188.617188 50.207031 188.835938 C 50.925781 189.054688 51.65625 189.234375 52.394531 189.378906 C 53.128906 189.523438 53.875 189.632812 54.621094 189.707031 C 55.371094 189.777344 56.121094 189.8125 56.875 189.8125 L 109.488281 189.8125 L 109.488281 189.847656 C 110.292969 189.910156 111.085938 190.042969 111.867188 190.25 C 112.644531 190.457031 113.398438 190.738281 114.125 191.085938 C 114.855469 191.4375 115.542969 191.851562 116.191406 192.332031 C 116.84375 192.8125 117.441406 193.347656 117.988281 193.9375 C 118.539062 194.53125 119.027344 195.167969 119.457031 195.851562 C 119.886719 196.535156 120.246094 197.253906 120.542969 198.003906 C 120.835938 198.757812 121.058594 199.53125 121.207031 200.324219 C 121.355469 201.117188 121.429688 201.917969 121.425781 202.722656 C 121.429688 203.53125 121.355469 204.332031 121.207031 205.125 C 121.058594 205.917969 120.835938 206.691406 120.542969 207.441406 C 120.25 208.195312 119.886719 208.910156 119.457031 209.59375 C 119.03125 210.277344 118.539062 210.917969 117.992188 211.507812 C 117.445312 212.101562 116.84375 212.636719 116.195312 213.117188 C 115.546875 213.59375 114.859375 214.011719 114.128906 214.359375 C 113.402344 214.710938 112.648438 214.988281 111.871094 215.199219 C 111.089844 215.40625 110.296875 215.539062 109.492188 215.601562 L 109.492188 215.644531 L 28.574219 215.644531 C 27.820312 215.640625 27.070312 215.675781 26.320312 215.75 C 25.574219 215.820312 24.832031 215.929688 24.09375 216.078125 C 23.355469 216.222656 22.625 216.402344 21.90625 216.621094 C 21.1875 216.839844 20.480469 217.089844 19.785156 217.378906 C 19.089844 217.664062 18.410156 217.984375 17.746094 218.339844 C 17.082031 218.695312 16.4375 219.078125 15.8125 219.496094 C 15.1875 219.914062 14.585938 220.363281 14.003906 220.839844 C 13.421875 221.316406 12.867188 221.820312 12.335938 222.351562 C 11.800781 222.882812 11.296875 223.441406 10.820312 224.023438 C 10.34375 224.601562 9.898438 225.207031 9.480469 225.832031 C 9.0625 226.457031 8.675781 227.101562 8.324219 227.765625 C 7.96875 228.429688 7.648438 229.109375 7.363281 229.804688 C 7.074219 230.5 6.824219 231.207031 6.605469 231.925781 C 6.386719 232.644531 6.207031 233.375 6.0625 234.113281 C 5.914062 234.851562 5.808594 235.59375 5.734375 236.339844 C 5.664062 237.089844 5.628906 237.839844 5.628906 238.59375 C 5.628906 239.34375 5.664062 240.09375 5.734375 240.84375 C 5.808594 241.589844 5.914062 242.335938 6.0625 243.074219 C 6.207031 243.808594 6.386719 244.539062 6.605469 245.257812 C 6.824219 245.980469 7.074219 246.6875 7.363281 247.382812 C 7.648438 248.078125 7.96875 248.757812 8.324219 249.417969 C 8.679688 250.082031 9.0625 250.726562 9.480469 251.351562 C 9.898438 251.980469 10.347656 252.582031 10.824219 253.164062 C 11.300781 253.746094 11.804688 254.300781 12.335938 254.832031 C 12.867188 255.363281 13.425781 255.871094 14.007812 256.347656 C 14.585938 256.824219 15.191406 257.269531 15.816406 257.6875 C 16.441406 258.105469 17.085938 258.492188 17.75 258.84375 C 18.414062 259.199219 19.09375 259.519531 19.789062 259.808594 C 20.484375 260.09375 21.191406 260.347656 21.910156 260.5625 C 22.628906 260.78125 23.359375 260.960938 24.097656 261.109375 C 24.835938 261.253906 25.578125 261.363281 26.328125 261.433594 C 27.074219 261.507812 27.824219 261.542969 28.578125 261.539062 L 128.40625 261.539062 C 135.355469 261.539062 140.988281 255.910156 140.988281 248.960938 L 140.988281 144.457031 C 140.984375 143.609375 141.066406 142.769531 141.230469 141.9375 C 141.394531 141.105469 141.640625 140.296875 141.960938 139.511719 C 142.285156 138.730469 142.683594 137.984375 143.15625 137.277344 C 143.625 136.574219 144.160156 135.917969 144.761719 135.320312 C 145.359375 134.71875 146.011719 134.183594 146.71875 133.714844 C 147.425781 133.242188 148.167969 132.84375 148.953125 132.519531 C 149.738281 132.199219 150.546875 131.953125 151.378906 131.789062 C 152.210938 131.625 153.050781 131.542969 153.898438 131.546875 L 218.824219 131.546875 C 219.671875 131.542969 220.511719 131.625 221.34375 131.789062 C 222.175781 131.953125 222.984375 132.199219 223.769531 132.523438 C 224.554688 132.847656 225.296875 133.242188 226.003906 133.714844 C 226.710938 134.1875 227.363281 134.722656 227.964844 135.320312 C 228.5625 135.921875 229.097656 136.574219 229.570312 137.28125 C 230.039062 137.988281 230.4375 138.730469 230.761719 139.515625 C 231.085938 140.300781 231.328125 141.109375 231.492188 141.941406 C 231.65625 142.773438 231.738281 143.617188 231.734375 144.464844 L 231.730469 250.441406 C 231.730469 256.574219 236.703125 261.546875 242.832031 261.546875 L 350.496094 261.546875 C 351.25 261.546875 352 261.511719 352.746094 261.441406 C 353.496094 261.367188 354.238281 261.257812 354.976562 261.113281 C 355.714844 260.96875 356.445312 260.785156 357.164062 260.570312 C 357.882812 260.351562 358.589844 260.097656 359.285156 259.8125 C 359.980469 259.523438 360.660156 259.203125 361.324219 258.851562 C 361.988281 258.496094 362.632812 258.109375 363.257812 257.695312 C 363.882812 257.277344 364.488281 256.828125 365.066406 256.351562 C 365.648438 255.875 366.207031 255.371094 366.738281 254.839844 C 367.269531 254.308594 367.773438 253.75 368.25 253.167969 C 368.726562 252.585938 369.175781 251.984375 369.59375 251.359375 C 370.011719 250.734375 370.394531 250.089844 370.75 249.425781 C 371.105469 248.761719 371.425781 248.082031 371.710938 247.386719 C 372 246.691406 372.25 245.984375 372.46875 245.265625 C 372.6875 244.542969 372.867188 243.816406 373.011719 243.078125 C 373.160156 242.339844 373.265625 241.597656 373.339844 240.847656 C 373.410156 240.097656 373.449219 239.347656 373.445312 238.597656 C 373.449219 237.84375 373.410156 237.09375 373.339844 236.347656 C 373.265625 235.597656 373.160156 234.855469 373.011719 234.117188 C 372.867188 233.378906 372.6875 232.648438 372.46875 231.929688 C 372.25 231.210938 372 230.503906 371.710938 229.808594 C 371.425781 229.113281 371.105469 228.433594 370.75 227.769531 C 370.394531 227.105469 370.011719 226.460938 369.59375 225.835938 C 369.175781 225.210938 368.726562 224.605469 368.25 224.023438 C 367.773438 223.445312 367.269531 222.886719 366.738281 222.355469 C 366.207031 221.824219 365.648438 221.320312 365.066406 220.84375 C 364.488281 220.367188 363.882812 219.917969 363.257812 219.5 C 362.632812 219.082031 361.988281 218.699219 361.324219 218.34375 C 360.660156 217.988281 359.980469 217.667969 359.285156 217.382812 C 358.589844 217.09375 357.882812 216.84375 357.164062 216.625 C 356.445312 216.40625 355.714844 216.226562 354.976562 216.082031 C 354.238281 215.9375 353.496094 215.828125 352.746094 215.753906 C 352 215.683594 351.25 215.648438 350.496094 215.648438 L 264.203125 215.648438 C 263.355469 215.648438 262.511719 215.570312 261.679688 215.402344 C 260.847656 215.238281 260.039062 214.996094 259.253906 214.671875 C 258.472656 214.347656 257.726562 213.949219 257.019531 213.480469 C 256.3125 213.007812 255.660156 212.472656 255.0625 211.871094 C 254.460938 211.273438 253.925781 210.617188 253.457031 209.914062 C 252.984375 209.207031 252.585938 208.460938 252.261719 207.675781 C 251.941406 206.894531 251.695312 206.085938 251.53125 205.25 C 251.367188 204.417969 251.285156 203.578125 251.289062 202.730469 C 251.285156 201.882812 251.367188 201.039062 251.53125 200.207031 C 251.695312 199.375 251.941406 198.566406 252.265625 197.78125 C 252.585938 196.996094 252.984375 196.25 253.457031 195.546875 C 253.925781 194.839844 254.464844 194.1875 255.0625 193.585938 C 255.664062 192.984375 256.316406 192.449219 257.023438 191.980469 C 257.730469 191.507812 258.472656 191.109375 259.257812 190.785156 C 260.042969 190.460938 260.851562 190.21875 261.683594 190.054688 C 262.519531 189.890625 263.359375 189.808594 264.207031 189.8125 L 322.199219 189.8125 C 322.953125 189.8125 323.703125 189.777344 324.453125 189.707031 C 325.199219 189.632812 325.941406 189.523438 326.679688 189.378906 C 327.417969 189.234375 328.148438 189.054688 328.867188 188.835938 C 329.585938 188.617188 330.296875 188.367188 330.992188 188.078125 C 331.6875 187.792969 332.363281 187.472656 333.027344 187.117188 C 333.691406 186.765625 334.335938 186.378906 334.960938 185.960938 C 335.589844 185.542969 336.191406 185.097656 336.773438 184.621094 C 337.355469 184.144531 337.910156 183.640625 338.445312 183.109375 C 338.976562 182.578125 339.480469 182.019531 339.957031 181.4375 C 340.433594 180.855469 340.882812 180.253906 341.300781 179.628906 C 341.71875 179.003906 342.101562 178.359375 342.457031 177.695312 C 342.8125 177.03125 343.132812 176.351562 343.417969 175.65625 C 343.707031 174.960938 343.957031 174.253906 344.175781 173.535156 C 344.394531 172.816406 344.574219 172.085938 344.722656 171.347656 C 344.867188 170.609375 344.976562 169.867188 345.046875 169.117188 C 345.121094 168.371094 345.15625 167.621094 345.15625 166.867188 C 345.15625 166.117188 345.121094 165.363281 345.050781 164.617188 C 344.976562 163.867188 344.867188 163.125 344.722656 162.386719 C 344.578125 161.648438 344.394531 160.917969 344.179688 160.199219 C 343.960938 159.476562 343.710938 158.769531 343.421875 158.074219 C 343.136719 157.378906 342.8125 156.699219 342.460938 156.035156 C 342.105469 155.371094 341.71875 154.726562 341.304688 154.101562 C 340.886719 153.476562 340.4375 152.871094 339.960938 152.292969 C 339.484375 151.710938 338.980469 151.152344 338.449219 150.621094 C 337.914062 150.089844 337.359375 149.585938 336.777344 149.105469 C 336.195312 148.628906 335.589844 148.183594 334.964844 147.765625 C 334.339844 147.347656 333.695312 146.960938 333.03125 146.609375 C 332.367188 146.253906 331.6875 145.933594 330.992188 145.644531 C 330.296875 145.359375 329.589844 145.105469 328.871094 144.890625 C 328.148438 144.671875 327.421875 144.492188 326.683594 144.34375 C 325.945312 144.199219 325.199219 144.089844 324.453125 144.019531 C 323.703125 143.945312 322.953125 143.910156 322.199219 143.914062 L 269.59375 143.917969 L 269.59375 143.90625 L 269.292969 143.917969 L 258.546875 143.917969 C 257.695312 143.921875 256.855469 143.839844 256.023438 143.675781 C 255.191406 143.511719 254.382812 143.265625 253.597656 142.941406 C 252.816406 142.617188 252.070312 142.222656 251.363281 141.75 C 250.660156 141.28125 250.007812 140.746094 249.40625 140.144531 C 248.804688 139.542969 248.269531 138.890625 247.800781 138.1875 C 247.328125 137.480469 246.933594 136.734375 246.609375 135.953125 C 246.285156 135.167969 246.039062 134.359375 245.875 133.527344 C 245.710938 132.695312 245.628906 131.855469 245.632812 131.003906 C 245.628906 130.15625 245.710938 129.316406 245.875 128.484375 C 246.039062 127.652344 246.28125 126.84375 246.605469 126.058594 C 246.929688 125.273438 247.328125 124.527344 247.796875 123.824219 C 248.269531 123.117188 248.804688 122.464844 249.40625 121.863281 C 250.003906 121.261719 250.65625 120.726562 251.363281 120.257812 C 252.070312 119.785156 252.8125 119.386719 253.597656 119.0625 C 254.382812 118.738281 255.191406 118.496094 256.023438 118.332031 C 256.855469 118.167969 257.695312 118.085938 258.546875 118.085938 L 269.292969 118.085938 L 269.585938 118.097656 L 269.585938 118.085938 L 293.910156 118.085938 C 294.660156 118.089844 295.410156 118.054688 296.160156 117.980469 C 296.910156 117.910156 297.652344 117.800781 298.390625 117.65625 C 299.128906 117.507812 299.855469 117.328125 300.578125 117.109375 C 301.296875 116.894531 302.003906 116.640625 302.699219 116.355469 C 303.394531 116.066406 304.074219 115.746094 304.738281 115.390625 C 305.402344 115.039062 306.046875 114.652344 306.671875 114.234375 C 307.296875 113.816406 307.898438 113.371094 308.480469 112.894531 C 309.0625 112.417969 309.621094 111.910156 310.152344 111.378906 C 310.683594 110.847656 311.1875 110.292969 311.664062 109.710938 C 312.140625 109.128906 312.589844 108.523438 313.007812 107.898438 C 313.421875 107.273438 313.808594 106.628906 314.164062 105.964844 C 314.515625 105.300781 314.835938 104.625 315.125 103.929688 C 315.410156 103.234375 315.664062 102.527344 315.882812 101.804688 C 316.097656 101.085938 316.28125 100.355469 316.425781 99.617188 C 316.570312 98.882812 316.679688 98.136719 316.753906 97.390625 C 316.824219 96.640625 316.859375 95.890625 316.859375 95.136719 C 316.859375 94.386719 316.824219 93.636719 316.753906 92.886719 C 316.679688 92.140625 316.570312 91.394531 316.425781 90.65625 C 316.28125 89.921875 316.097656 89.191406 315.882812 88.472656 C 315.664062 87.75 315.410156 87.042969 315.125 86.347656 C 314.835938 85.652344 314.515625 84.972656 314.164062 84.3125 C 313.808594 83.648438 313.421875 83.003906 313.007812 82.378906 C 312.589844 81.75 312.140625 81.148438 311.664062 80.566406 C 311.1875 79.984375 310.683594 79.429688 310.152344 78.898438 C 309.621094 78.363281 309.0625 77.859375 308.480469 77.382812 C 307.898438 76.90625 307.296875 76.460938 306.671875 76.042969 C 306.046875 75.625 305.402344 75.238281 304.738281 74.882812 C 304.074219 74.53125 303.394531 74.210938 302.699219 73.921875 C 302.003906 73.636719 301.296875 73.382812 300.578125 73.167969 C 299.855469 72.949219 299.128906 72.769531 298.390625 72.621094 C 297.652344 72.476562 296.910156 72.367188 296.160156 72.296875 C 295.410156 72.222656 294.660156 72.1875 293.910156 72.1875 Z M 85.164062 72.179688 "/></g></svg>