<svg xmlns="http://www.w3.org/2000/svg" xmlns:xlink="http://www.w3.org/1999/xlink" width="500" zoomAndPan="magnify" viewBox="0 0 375 374.999991" height="500" preserveAspectRatio="xMidYMid meet" version="1.0"><defs><g/><clipPath id="0fede15bc7"><path d="M 64.46875 64.46875 L 310.53125 64.46875 L 310.53125 310.53125 L 64.46875 310.53125 Z M 64.46875 64.46875 " clip-rule="nonzero"/></clipPath><clipPath id="169a0c6058"><path d="M 187.5 64.46875 C 119.550781 64.46875 64.46875 119.550781 64.46875 187.5 C 64.46875 255.449219 119.550781 310.53125 187.5 310.53125 C 255.449219 310.53125 310.53125 255.449219 310.53125 187.5 C 310.53125 119.550781 255.449219 64.46875 187.5 64.46875 Z M 187.5 64.46875 " clip-rule="nonzero"/></clipPath></defs><g clip-path="url(#0fede15bc7)"><g clip-path="url(#169a0c6058)"><path fill="#ffffff" d="M 64.46875 64.46875 L 310.53125 64.46875 L 310.53125 310.53125 L 64.46875 310.53125 Z M 64.46875 64.46875 " fill-opacity="1" fill-rule="nonzero"/></g></g><path fill="#7ca7ad" d="M 164.082031 160.34375 C 164.082031 160.34375 174.300781 144.484375 188.859375 144.808594 C 203.417969 145.136719 213.75 159.691406 213.75 159.691406 C 213.75 159.691406 195.8125 150.351562 164.082031 160.34375 " fill-opacity="1" fill-rule="nonzero"/><path fill="#012f5f" d="M 133.871094 173.722656 C 133.871094 173.722656 131.144531 170.574219 136.253906 168.175781 C 141.363281 165.777344 158.207031 159.160156 189.722656 159.054688 C 221.25 158.929688 237.308594 164.484375 240.269531 166 C 243.519531 167.664062 245.042969 168.609375 243.851562 171.863281 C 243.851562 171.863281 242.65625 168.609375 237.652344 167.085938 C 232.65625 165.570312 215.167969 160.859375 189.941406 161.546875 C 162.335938 162.308594 143.082031 167.285156 137.558594 170.023438 C 133.449219 172.078125 133.871094 173.722656 133.871094 173.722656 " fill-opacity="1" fill-rule="nonzero"/><path fill="#7ca7ad" d="M 145.710938 182.636719 L 189.664062 199.371094 C 189.921875 197.339844 190.152344 195.375 190.316406 193.453125 Z M 145.710938 182.636719 " fill-opacity="1" fill-rule="nonzero"/><path fill="#012f5f" d="M 191.667969 193.363281 C 192.316406 185.253906 192.125 174.800781 189.949219 161.980469 C 189.949219 161.980469 192.039062 174.898438 190.320312 193.449219 C 190.15625 195.367188 189.925781 197.332031 189.667969 199.367188 C 189.042969 204.175781 188.152344 209.285156 186.914062 214.578125 C 186.914062 214.578125 189.539062 209.507812 191.007812 199.285156 L 234.835938 179.25 Z M 191.667969 193.363281 " fill-opacity="1" fill-rule="nonzero"/><path fill="#012f5f" d="M 241.5625 201.710938 C 239.613281 196.609375 235.8125 192.632812 220.375 197.511719 C 207.074219 201.726562 191.078125 215.042969 187.140625 218.484375 C 184.933594 216.917969 155.457031 196.238281 143.761719 196.648438 C 126.734375 197.203125 132.828125 207.101562 137.019531 208.339844 C 138.832031 208.824219 140.609375 207.742188 141.691406 205.882812 C 142.78125 204.03125 146.691406 200.011719 155.28125 202.628906 C 163.027344 204.984375 174.757812 209.863281 184.164062 216.496094 C 179.945312 213.621094 171.769531 208.90625 163.214844 208.808594 C 150.167969 208.691406 145.289062 219.253906 145.386719 223.488281 C 145.382812 229.953125 150.214844 232.285156 153.210938 230.234375 C 156.199219 228.183594 153.25 224.375 154.726562 219.910156 C 156.199219 215.425781 165.691406 211.097656 172.992188 212.308594 C 179.191406 213.3125 185.050781 217.203125 186.664062 218.371094 C 186.820312 218.472656 186.972656 218.601562 187.121094 218.703125 C 199.832031 208.707031 213.746094 204.484375 217.875 203.382812 C 222.011719 202.277344 229.625 202.210938 232.648438 207.214844 C 235.695312 212.214844 243.519531 206.808594 241.5625 201.710938 " fill-opacity="1" fill-rule="nonzero"/><path fill="#012f5f" d="M 187.277344 68.15625 C 121.488281 68.15625 68.15625 121.484375 68.15625 187.273438 C 68.15625 253.074219 121.484375 306.375 187.277344 306.375 C 253.070312 306.375 306.394531 253.074219 306.394531 187.273438 C 306.390625 121.484375 253.070312 68.15625 187.277344 68.15625 M 187.039062 259.457031 C 146.785156 259.457031 114.15625 226.839844 114.15625 186.578125 C 114.15625 146.324219 146.785156 113.6875 187.039062 113.6875 C 227.292969 113.6875 259.933594 146.324219 259.933594 186.578125 C 259.9375 226.839844 227.296875 259.457031 187.039062 259.457031 " fill-opacity="1" fill-rule="nonzero"/><path fill="#ffffff" d="M 104.277344 231.527344 C 104.867188 233.335938 104.984375 234.964844 104.628906 236.410156 C 104.296875 237.839844 103.394531 238.917969 101.964844 239.640625 C 100.84375 240.1875 99.800781 240.472656 98.835938 240.484375 C 97.878906 240.484375 96.988281 240.308594 96.1875 239.890625 C 95.375 239.460938 94.652344 238.863281 94 238.054688 C 93.347656 237.238281 92.761719 236.34375 92.246094 235.296875 C 91.390625 233.59375 90.574219 231.890625 89.796875 230.203125 C 89.023438 228.550781 88.136719 226.722656 87.152344 224.707031 L 88.089844 224.257812 C 89.0625 226.226562 90.128906 226.929688 91.304688 226.339844 L 106.144531 218.988281 C 107.597656 218.261719 107.816406 216.863281 106.789062 214.824219 L 107.765625 214.339844 L 112.226562 223.351562 C 112.773438 224.433594 113.195312 225.503906 113.488281 226.542969 C 113.78125 227.574219 113.902344 228.515625 113.855469 229.375 C 113.804688 230.261719 113.578125 231.0625 113.160156 231.765625 C 112.742188 232.460938 112.089844 233.023438 111.191406 233.46875 C 110.507812 233.808594 109.867188 233.992188 109.277344 234.015625 C 108.683594 234.074219 108.105469 233.980469 107.558594 233.761719 C 107.007812 233.558594 106.464844 233.257812 105.957031 232.867188 C 105.4375 232.453125 104.921875 231.984375 104.414062 231.457031 Z M 92.988281 233.820312 C 93.335938 234.535156 93.738281 235.144531 94.191406 235.65625 C 94.652344 236.183594 95.167969 236.585938 95.746094 236.832031 C 96.335938 237.101562 96.96875 237.214844 97.667969 237.183594 C 98.363281 237.140625 99.125 236.925781 99.953125 236.5 C 100.9375 236.03125 101.652344 235.480469 102.109375 234.882812 C 102.550781 234.289062 102.800781 233.617188 102.859375 232.894531 C 102.910156 232.171875 102.800781 231.359375 102.507812 230.492188 C 102.21875 229.640625 101.832031 228.710938 101.347656 227.714844 L 100.789062 226.613281 C 100.496094 226.011719 99.953125 225.902344 99.160156 226.285156 L 92.425781 229.636719 C 91.613281 230.035156 91.578125 230.96875 92.316406 232.46875 Z M 110.6875 223.289062 C 109.972656 221.847656 109.222656 221.3125 108.449219 221.675781 L 102.4375 224.671875 C 101.847656 224.945312 101.710938 225.410156 102.015625 226 C 102.722656 227.429688 103.351562 228.539062 103.933594 229.308594 C 104.492188 230.105469 105.054688 230.671875 105.621094 230.957031 C 106.167969 231.265625 106.742188 231.371094 107.324219 231.265625 C 107.898438 231.15625 108.554688 230.898438 109.28125 230.554688 C 111.964844 229.222656 112.640625 227.195312 111.277344 224.484375 Z M 110.6875 223.289062 " fill-opacity="1" fill-rule="nonzero"/><path fill="#ffffff" d="M 111.136719 261.777344 C 109.96875 260.628906 109.105469 259.324219 108.558594 257.902344 C 108.011719 256.492188 107.761719 255.050781 107.8125 253.5625 C 107.863281 252.078125 108.199219 250.636719 108.828125 249.222656 C 109.457031 247.789062 110.347656 246.5 111.523438 245.328125 C 112.601562 244.246094 113.835938 243.386719 115.25 242.726562 C 116.648438 242.089844 118.09375 241.722656 119.601562 241.636719 C 121.101562 241.539062 122.589844 241.734375 124.070312 242.253906 C 125.550781 242.761719 126.890625 243.636719 128.105469 244.835938 C 129.300781 246.039062 130.195312 247.347656 130.785156 248.792969 C 131.382812 250.214844 131.671875 251.664062 131.636719 253.140625 C 131.621094 254.621094 131.304688 256.070312 130.703125 257.496094 C 130.101562 258.921875 129.195312 260.234375 128 261.4375 C 126.953125 262.488281 125.703125 263.332031 124.269531 263.976562 C 122.835938 264.585938 121.371094 264.96875 119.839844 265.070312 C 118.324219 265.160156 116.792969 264.972656 115.28125 264.449219 C 113.761719 263.917969 112.375 263.050781 111.136719 261.777344 M 112.285156 261.023438 C 113.214844 261.957031 114.183594 262.546875 115.234375 262.820312 C 116.265625 263.078125 117.339844 263.089844 118.4375 262.839844 C 119.542969 262.605469 120.652344 262.128906 121.765625 261.4375 C 122.871094 260.734375 123.953125 259.84375 125.003906 258.804688 C 125.996094 257.832031 126.835938 256.777344 127.546875 255.660156 C 128.261719 254.535156 128.769531 253.394531 129.039062 252.238281 C 129.300781 251.09375 129.300781 249.941406 129.023438 248.777344 C 128.746094 247.644531 128.09375 246.542969 127.074219 245.539062 C 126.136719 244.597656 125.148438 244 124.082031 243.757812 C 123.03125 243.527344 121.941406 243.550781 120.867188 243.847656 C 119.769531 244.101562 118.691406 244.613281 117.628906 245.34375 C 116.542969 246.074219 115.507812 246.925781 114.527344 247.917969 C 113.441406 249 112.546875 250.105469 111.824219 251.257812 C 111.097656 252.40625 110.617188 253.53125 110.359375 254.667969 C 110.128906 255.804688 110.152344 256.910156 110.441406 257.984375 C 110.75 259.097656 111.355469 260.082031 112.285156 261.023438 " fill-opacity="1" fill-rule="nonzero"/><path fill="#ffffff" d="M 138.34375 281.074219 L 138.851562 280.167969 C 139.15625 280.269531 139.484375 280.394531 139.820312 280.515625 C 140.15625 280.644531 140.46875 280.757812 140.765625 280.839844 C 141.035156 280.917969 141.304688 280.945312 141.53125 280.945312 C 141.75 280.960938 141.894531 280.882812 141.964844 280.769531 C 141.984375 280.679688 142.035156 280.550781 142.113281 280.386719 C 142.1875 280.234375 142.230469 280.003906 142.246094 279.742188 L 142.898438 275.214844 C 142.972656 274.578125 142.492188 273.964844 141.46875 273.425781 L 136.902344 270.964844 C 136.132812 270.539062 135.523438 270.546875 135.066406 270.996094 L 132.316406 273.609375 C 132.128906 273.730469 131.945312 273.976562 131.761719 274.328125 C 131.25 275.253906 131.894531 276.214844 133.703125 277.191406 L 133.117188 278.257812 L 126.230469 274.542969 L 126.804688 273.464844 C 127.429688 273.730469 128.039062 273.808594 128.65625 273.675781 C 129.269531 273.523438 129.910156 273.1875 130.570312 272.648438 L 147.375 259.132812 L 148.089844 259.996094 L 145.523438 282.113281 C 145.578125 282.6875 145.660156 283.085938 145.769531 283.261719 C 145.78125 283.324219 145.925781 283.492188 146.183594 283.71875 C 146.4375 283.957031 146.804688 284.285156 147.257812 284.699219 L 146.753906 285.617188 Z M 144.566406 263.195312 L 138.398438 268.179688 C 137.910156 268.546875 137.613281 268.832031 137.507812 269.03125 C 137.335938 269.332031 137.621094 269.695312 138.382812 270.109375 L 142.234375 272.199219 C 142.855469 272.515625 143.226562 272.566406 143.359375 272.320312 C 143.40625 272.230469 143.476562 271.820312 143.570312 271.117188 Z M 144.566406 263.195312 " fill-opacity="1" fill-rule="nonzero"/><path fill="#ffffff" d="M 159.902344 289.445312 L 160.113281 288.417969 C 162.554688 288.9375 163.972656 288.140625 164.40625 286.03125 L 167.644531 270.324219 C 167.824219 269.488281 167.347656 268.96875 166.238281 268.726562 C 164.738281 268.402344 163.414062 268.640625 162.289062 269.425781 C 161.164062 270.191406 160.167969 271.515625 159.3125 273.363281 L 158.308594 272.882812 L 160.726562 265.808594 C 161.234375 266 161.710938 266.152344 162.179688 266.277344 C 162.625 266.433594 163.078125 266.535156 163.507812 266.625 L 176.625 269.339844 C 177.117188 269.445312 177.605469 269.515625 178.113281 269.574219 C 178.617188 269.636719 179.148438 269.664062 179.683594 269.71875 L 178.207031 276.855469 L 177.261719 276.792969 C 177.738281 273.089844 176.304688 270.902344 172.949219 270.226562 C 171.832031 270.003906 171.1875 270.25 171.023438 271.019531 L 167.785156 286.730469 C 167.347656 288.828125 168.363281 290.128906 170.8125 290.625 L 170.601562 291.652344 Z M 159.902344 289.445312 " fill-opacity="1" fill-rule="nonzero"/><path fill="#ffffff" d="M 218.445312 281.601562 C 218.496094 282.820312 218.347656 283.929688 217.984375 284.914062 C 217.613281 285.90625 217.078125 286.796875 216.410156 287.53125 C 215.730469 288.296875 214.921875 288.941406 213.976562 289.449219 C 213.023438 289.953125 212.019531 290.335938 210.929688 290.574219 C 209.320312 290.929688 207.796875 290.953125 206.367188 290.652344 C 204.9375 290.367188 203.644531 289.816406 202.492188 288.996094 C 201.335938 288.195312 200.355469 287.128906 199.550781 285.855469 C 198.75 284.558594 198.171875 283.105469 197.816406 281.519531 C 197.441406 279.742188 197.371094 278.054688 197.621094 276.46875 C 197.863281 274.863281 198.351562 273.425781 199.082031 272.167969 C 199.808594 270.890625 200.742188 269.792969 201.890625 268.917969 C 203.054688 268.058594 204.351562 267.476562 205.800781 267.15625 C 207.554688 266.773438 209.304688 266.929688 211.074219 267.632812 C 211.6875 266.648438 212.402344 266.003906 213.214844 265.679688 C 213.292969 265.738281 213.460938 265.941406 213.683594 266.378906 C 213.921875 266.789062 214.167969 267.332031 214.449219 268.007812 C 214.734375 268.6875 215.003906 269.460938 215.304688 270.347656 C 215.601562 271.222656 215.84375 272.183594 216.070312 273.179688 L 214.90625 273.417969 C 213.914062 271.363281 212.652344 269.921875 211.117188 269.113281 C 209.589844 268.292969 207.949219 268.070312 206.234375 268.445312 C 204.984375 268.722656 203.980469 269.214844 203.214844 269.933594 C 202.445312 270.675781 201.871094 271.527344 201.496094 272.515625 C 201.125 273.523438 200.921875 274.613281 200.90625 275.78125 C 200.882812 276.941406 201.007812 278.101562 201.253906 279.261719 C 201.605469 280.875 202.078125 282.328125 202.652344 283.648438 C 203.238281 284.949219 203.949219 286.035156 204.785156 286.910156 C 205.613281 287.808594 206.578125 288.421875 207.671875 288.773438 C 208.78125 289.148438 210.007812 289.164062 211.371094 288.867188 C 212.242188 288.695312 212.984375 288.429688 213.636719 288.097656 C 214.292969 287.761719 214.859375 287.304688 215.339844 286.742188 C 215.824219 286.1875 216.226562 285.46875 216.542969 284.585938 C 216.859375 283.730469 217.125 282.683594 217.335938 281.441406 Z M 218.445312 281.601562 " fill-opacity="1" fill-rule="nonzero"/><path fill="#ffffff" d="M 232.402344 282.925781 L 231.886719 282.003906 C 233.65625 281 234.238281 279.941406 233.613281 278.859375 L 225.460938 264.554688 C 224.59375 263.015625 223.152344 262.820312 221.160156 263.964844 L 220.640625 263.042969 L 229.40625 258.050781 L 229.929688 258.941406 C 228.0625 260.007812 227.578125 261.304688 228.457031 262.832031 L 236.605469 277.128906 C 237.085938 277.980469 237.980469 278.039062 239.292969 277.277344 L 240.6875 276.496094 C 241.613281 275.984375 242.382812 275.449219 242.996094 274.917969 C 243.605469 274.378906 244.085938 273.875 244.429688 273.347656 C 245.042969 272.363281 245.011719 270.480469 244.355469 267.671875 L 245.238281 267.320312 L 247.890625 274.082031 Z M 232.402344 282.925781 " fill-opacity="1" fill-rule="nonzero"/><path fill="#ffffff" d="M 256.449219 240.019531 C 254.957031 238.613281 253.386719 238.789062 251.761719 240.539062 L 250.988281 239.820312 L 256.507812 233.914062 L 257.269531 234.640625 C 255.960938 236.039062 256.046875 237.449219 257.542969 238.851562 L 265.269531 246.066406 C 266.246094 246.984375 267.054688 247.894531 267.691406 248.808594 C 268.332031 249.714844 268.703125 250.710938 268.769531 251.761719 C 268.855469 252.820312 268.613281 253.949219 268.046875 255.210938 C 267.46875 256.457031 266.445312 257.847656 264.96875 259.417969 C 264.03125 260.421875 263.085938 261.179688 262.101562 261.675781 C 261.121094 262.171875 260.148438 262.457031 259.175781 262.523438 C 258.203125 262.582031 257.242188 262.429688 256.324219 262.050781 C 255.398438 261.675781 254.542969 261.109375 253.75 260.367188 L 244.648438 251.855469 C 243.414062 250.6875 242.050781 250.933594 240.542969 252.527344 L 239.785156 251.808594 L 246.664062 244.46875 L 247.414062 245.191406 C 245.90625 246.804688 245.769531 248.179688 247.003906 249.335938 L 255.4375 257.234375 C 256.011719 257.777344 256.625 258.28125 257.285156 258.804688 C 257.953125 259.300781 258.664062 259.617188 259.425781 259.769531 C 260.199219 259.910156 261.035156 259.824219 261.9375 259.464844 C 262.835938 259.121094 263.828125 258.375 264.933594 257.1875 C 265.9375 256.09375 266.59375 255.074219 266.875 254.125 C 267.140625 253.167969 267.199219 252.277344 267.03125 251.480469 C 266.855469 250.675781 266.519531 249.960938 266.03125 249.277344 C 265.539062 248.605469 265.023438 248.019531 264.503906 247.527344 Z M 256.449219 240.019531 " fill-opacity="1" fill-rule="nonzero"/><path fill="#ffffff" d="M 274.441406 221.074219 C 275.460938 219.472656 276.628906 218.316406 277.949219 217.675781 C 279.296875 217.03125 280.691406 217.03125 282.15625 217.675781 C 283.300781 218.175781 284.183594 218.820312 284.8125 219.535156 C 285.421875 220.28125 285.847656 221.089844 286.039062 221.964844 C 286.234375 222.859375 286.234375 223.816406 286.023438 224.835938 C 285.832031 225.835938 285.5 226.863281 285.015625 227.929688 C 284.25 229.695312 283.464844 231.410156 282.671875 233.0625 C 281.882812 234.71875 281.03125 236.585938 280.128906 238.597656 L 279.179688 238.175781 C 280.078125 236.15625 279.925781 234.898438 278.738281 234.359375 L 263.601562 227.648438 C 262.117188 226.976562 260.914062 227.707031 259.972656 229.792969 L 258.988281 229.351562 L 263.0625 220.179688 C 263.566406 219.0625 264.113281 218.0625 264.722656 217.175781 C 265.332031 216.289062 265.992188 215.597656 266.691406 215.070312 C 267.382812 214.535156 268.148438 214.226562 268.949219 214.113281 C 269.746094 213.960938 270.605469 214.121094 271.519531 214.515625 C 272.21875 214.835938 272.769531 215.226562 273.183594 215.621094 C 273.589844 216.0625 273.878906 216.558594 274.082031 217.125 C 274.285156 217.675781 274.382812 218.285156 274.398438 218.9375 C 274.414062 219.574219 274.382812 220.273438 274.308594 221.007812 Z M 264.003906 221.40625 C 263.355469 222.878906 263.410156 223.796875 264.207031 224.136719 L 270.339844 226.863281 C 270.925781 227.128906 271.375 226.953125 271.636719 226.335938 C 272.28125 224.890625 272.734375 223.695312 272.964844 222.742188 C 273.210938 221.808594 273.273438 221.007812 273.148438 220.402344 C 273.039062 219.777344 272.75 219.285156 272.300781 218.898438 C 271.847656 218.507812 271.246094 218.160156 270.503906 217.832031 C 267.773438 216.613281 265.789062 217.40625 264.5625 220.15625 Z M 283.414062 228.292969 C 283.742188 227.585938 283.953125 226.878906 284.0625 226.203125 C 284.179688 225.511719 284.148438 224.859375 283.976562 224.257812 C 283.804688 223.625 283.488281 223.0625 283.015625 222.535156 C 282.546875 222.050781 281.878906 221.585938 281.027344 221.214844 C 280.035156 220.789062 279.175781 220.566406 278.410156 220.609375 C 277.65625 220.644531 276.988281 220.875 276.390625 221.3125 C 275.792969 221.730469 275.25 222.3125 274.765625 223.097656 C 274.296875 223.863281 273.820312 224.753906 273.378906 225.753906 L 272.867188 226.882812 C 272.609375 227.496094 272.867188 227.988281 273.667969 228.332031 L 280.546875 231.394531 C 281.375 231.765625 282.121094 231.179688 282.792969 229.683594 Z M 283.414062 228.292969 " fill-opacity="1" fill-rule="nonzero"/><path fill="#ffffff" d="M 109.722656 156.257812 L 108.777344 155.753906 C 109.753906 153.894531 109.40625 152.519531 107.699219 151.628906 L 93.933594 144.339844 C 92.0625 143.347656 90.597656 143.855469 89.539062 145.871094 L 88.59375 145.359375 L 97.183594 129.105469 L 103.285156 131.679688 L 102.792969 132.835938 C 101.644531 132.472656 100.660156 132.3125 99.855469 132.367188 C 99.0625 132.421875 98.367188 132.640625 97.769531 133.019531 C 97.164062 133.414062 96.632812 133.949219 96.164062 134.632812 C 95.699219 135.320312 95.222656 136.121094 94.722656 137.054688 L 94.210938 138.007812 C 93.539062 139.289062 93.636719 140.167969 94.492188 140.628906 L 100.074219 143.578125 C 100.859375 143.992188 101.570312 143.589844 102.199219 142.390625 L 102.457031 141.917969 C 102.824219 141.214844 103.066406 140.648438 103.1875 140.1875 C 103.296875 139.742188 103.296875 139.335938 103.171875 138.972656 C 103.070312 138.609375 102.824219 138.261719 102.480469 137.914062 C 102.140625 137.574219 101.667969 137.164062 101.085938 136.691406 L 101.65625 135.613281 L 109.734375 139.886719 L 109.171875 140.96875 L 108.53125 140.632812 C 108.242188 140.46875 107.90625 140.34375 107.546875 140.25 C 107.175781 140.144531 106.78125 140.144531 106.351562 140.25 C 105.941406 140.347656 105.507812 140.601562 105.054688 140.996094 C 104.601562 141.390625 104.140625 142.03125 103.6875 142.894531 L 102.917969 144.359375 C 102.71875 144.71875 102.9375 145.085938 103.566406 145.421875 L 109.367188 148.484375 C 111.0625 149.386719 112.472656 148.738281 113.625 146.5625 L 114.582031 147.0625 Z M 109.722656 156.257812 " fill-opacity="1" fill-rule="nonzero"/><path fill="#ffffff" d="M 137.3125 116.117188 C 137.511719 116.332031 137.691406 116.621094 137.890625 117.015625 C 138.066406 117.394531 138.179688 117.824219 138.230469 118.257812 C 138.269531 118.707031 138.242188 119.175781 138.136719 119.628906 C 138.023438 120.09375 137.78125 120.496094 137.417969 120.839844 C 136.355469 121.832031 135.40625 122.378906 134.566406 122.503906 C 133.71875 122.628906 132.804688 122.394531 131.804688 121.820312 C 130.972656 121.363281 130.101562 120.847656 129.167969 120.285156 C 128.257812 119.722656 127.359375 119.25 126.472656 118.890625 C 125.578125 118.515625 124.734375 118.332031 123.910156 118.292969 C 123.089844 118.25 122.371094 118.53125 121.746094 119.128906 L 120.96875 119.855469 C 120.488281 120.300781 120.3125 120.652344 120.425781 120.90625 L 125.757812 126.582031 C 126.808594 127.71875 128.144531 127.527344 129.746094 126.023438 L 130.476562 126.804688 L 123.101562 133.726562 L 122.371094 132.933594 C 123.910156 131.511719 124.136719 130.210938 123.070312 129.085938 L 111.464844 116.710938 C 110.425781 115.597656 109.074219 115.804688 107.414062 117.371094 L 106.652344 116.554688 L 109.925781 113.492188 C 110.503906 112.953125 110.980469 112.492188 111.371094 112.109375 C 111.757812 111.71875 112.144531 111.34375 112.496094 110.976562 C 112.859375 110.609375 113.25 110.214844 113.667969 109.800781 C 114.085938 109.402344 114.601562 108.90625 115.210938 108.339844 C 115.960938 107.625 116.765625 107.078125 117.640625 106.675781 C 118.503906 106.269531 119.355469 106.035156 120.191406 105.96875 C 121.03125 105.898438 121.839844 106 122.617188 106.257812 C 123.378906 106.523438 124.050781 106.957031 124.621094 107.566406 C 125.199219 108.179688 125.585938 108.828125 125.796875 109.511719 C 126.023438 110.195312 126.074219 110.894531 126.003906 111.628906 C 125.917969 112.375 125.714844 113.121094 125.382812 113.882812 C 125.066406 114.648438 124.609375 115.425781 124.070312 116.199219 L 124.144531 116.28125 C 125.359375 115.902344 126.519531 115.753906 127.636719 115.824219 C 128.742188 115.914062 129.65625 116.144531 130.371094 116.53125 C 130.8125 116.78125 131.3125 117.089844 131.910156 117.441406 C 132.515625 117.800781 133.105469 118.109375 133.699219 118.371094 C 134.296875 118.640625 134.851562 118.808594 135.371094 118.886719 C 135.914062 118.964844 136.347656 118.832031 136.699219 118.507812 C 137.121094 118.113281 137.054688 117.445312 136.511719 116.46875 Z M 121.183594 117.730469 C 121.699219 117.25 122.175781 116.734375 122.597656 116.210938 C 123.027344 115.679688 123.3125 115.113281 123.464844 114.503906 C 123.617188 113.910156 123.605469 113.273438 123.410156 112.585938 C 123.222656 111.917969 122.746094 111.1875 122.015625 110.410156 C 121.394531 109.742188 120.761719 109.304688 120.109375 109.089844 C 119.46875 108.878906 118.851562 108.816406 118.234375 108.90625 C 117.625 109.011719 117.039062 109.226562 116.492188 109.546875 C 115.941406 109.867188 115.441406 110.226562 115.003906 110.640625 L 113.761719 111.816406 C 113.085938 112.433594 113.230469 113.242188 114.144531 114.214844 L 118.824219 119.207031 C 119.144531 119.410156 119.464844 119.34375 119.820312 119.007812 Z M 121.183594 117.730469 " fill-opacity="1" fill-rule="nonzero"/><path fill="#ffffff" d="M 145.332031 115.101562 L 144.902344 114.109375 C 146.914062 113.226562 147.613281 112.082031 146.992188 110.648438 L 140.492188 95.730469 C 139.683594 93.890625 138.203125 93.433594 136.035156 94.382812 L 135.601562 93.402344 L 152.894531 85.863281 L 155.839844 91.894531 L 154.871094 92.476562 C 154.167969 91.378906 153.464844 90.578125 152.785156 90.101562 C 152.105469 89.613281 151.417969 89.328125 150.714844 89.253906 C 150.015625 89.183594 149.300781 89.277344 148.554688 89.539062 C 147.792969 89.796875 147 90.113281 146.144531 90.472656 L 145.21875 90.894531 C 143.558594 91.605469 142.9375 92.464844 143.363281 93.445312 L 145.933594 99.339844 C 146.214844 99.992188 146.625 100.214844 147.152344 99.980469 L 148.265625 99.488281 C 148.808594 99.257812 149.3125 99.019531 149.761719 98.746094 C 150.214844 98.488281 150.566406 98.167969 150.824219 97.78125 C 151.085938 97.394531 151.226562 96.902344 151.25 96.339844 C 151.273438 95.757812 151.152344 95.054688 150.898438 94.210938 L 152.109375 93.679688 L 155.8125 102.199219 L 154.601562 102.726562 C 154.164062 101.957031 153.753906 101.367188 153.375 100.96875 C 152.988281 100.582031 152.589844 100.332031 152.144531 100.222656 C 151.707031 100.097656 151.226562 100.117188 150.714844 100.25 C 150.203125 100.386719 149.589844 100.609375 148.890625 100.90625 L 148.496094 101.085938 C 147.484375 101.527344 147.144531 102.101562 147.457031 102.820312 L 150.1875 109.105469 C 150.734375 110.351562 151.882812 110.59375 153.640625 109.835938 L 154.660156 109.386719 C 156.035156 108.789062 157.101562 108.191406 157.855469 107.625 C 158.621094 107.050781 159.15625 106.433594 159.484375 105.742188 C 159.820312 105.058594 159.984375 104.308594 160.019531 103.488281 C 160.035156 102.683594 160 101.742188 159.933594 100.679688 L 160.9375 100.554688 L 162.894531 107.445312 Z M 145.332031 115.101562 " fill-opacity="1" fill-rule="nonzero"/><path fill="#ffffff" d="M 171.816406 105.261719 L 171.742188 104.191406 C 173.933594 104.03125 174.976562 103.179688 174.867188 101.621094 L 173.722656 85.402344 C 173.578125 83.394531 172.332031 82.472656 169.980469 82.632812 L 169.902344 81.558594 L 188.714844 80.234375 L 189.464844 86.910156 L 188.363281 87.136719 C 188.066406 85.859375 187.667969 84.886719 187.191406 84.207031 C 186.710938 83.503906 186.15625 83.015625 185.519531 82.714844 C 184.882812 82.40625 184.1875 82.257812 183.386719 82.25 C 182.597656 82.25 181.730469 82.277344 180.804688 82.335938 L 179.796875 82.410156 C 177.992188 82.546875 177.125 83.144531 177.199219 84.21875 L 177.640625 90.617188 C 177.703125 91.324219 177.996094 91.667969 178.574219 91.625 L 179.796875 91.535156 C 180.390625 91.507812 180.941406 91.429688 181.460938 91.339844 C 181.957031 91.238281 182.40625 91.046875 182.785156 90.773438 C 183.160156 90.5 183.453125 90.089844 183.664062 89.558594 C 183.878906 89.039062 184.003906 88.320312 184.027344 87.429688 L 185.351562 87.339844 L 186.011719 96.605469 L 184.683594 96.703125 C 184.53125 95.832031 184.328125 95.140625 184.105469 94.640625 C 183.886719 94.140625 183.582031 93.769531 183.207031 93.523438 C 182.828125 93.277344 182.375 93.125 181.851562 93.078125 C 181.316406 93.015625 180.671875 93.023438 179.898438 93.074219 L 179.488281 93.105469 C 178.382812 93.191406 177.859375 93.617188 177.917969 94.40625 L 178.40625 101.226562 C 178.492188 102.589844 179.492188 103.203125 181.40625 103.078125 L 182.511719 103.003906 C 184.011719 102.878906 185.21875 102.695312 186.113281 102.394531 C 187.011719 102.105469 187.738281 101.691406 188.273438 101.167969 C 188.8125 100.636719 189.234375 99.988281 189.53125 99.226562 C 189.816406 98.464844 190.117188 97.570312 190.394531 96.546875 L 191.382812 96.765625 L 190.90625 103.917969 Z M 171.816406 105.261719 " fill-opacity="1" fill-rule="nonzero"/><path fill="#ffffff" d="M 199.964844 104.496094 L 200.273438 103.472656 C 200.960938 103.671875 201.519531 103.8125 201.953125 103.855469 C 202.398438 103.921875 202.769531 103.871094 203.070312 103.722656 C 203.371094 103.582031 203.621094 103.304688 203.835938 102.898438 C 204.042969 102.503906 204.242188 101.964844 204.449219 101.28125 L 208.714844 87.015625 C 208.953125 86.210938 209.066406 85.597656 209.074219 85.167969 C 209.082031 84.730469 208.972656 84.382812 208.761719 84.144531 C 208.523438 83.886719 208.214844 83.671875 207.796875 83.484375 C 207.382812 83.316406 206.886719 83.066406 206.308594 82.757812 L 206.632812 81.683594 C 207.070312 81.890625 207.542969 82.074219 208.042969 82.234375 C 208.546875 82.398438 209.058594 82.558594 209.59375 82.714844 C 210.269531 82.917969 210.925781 83.101562 211.527344 83.265625 C 212.152344 83.429688 212.746094 83.574219 213.339844 83.707031 C 213.949219 83.851562 214.554688 84.003906 215.195312 84.171875 C 215.835938 84.335938 216.523438 84.53125 217.25 84.75 C 219.191406 85.328125 220.835938 86.109375 222.195312 87.085938 C 223.550781 88.070312 224.597656 89.203125 225.335938 90.492188 C 226.070312 91.78125 226.5 93.234375 226.613281 94.824219 C 226.710938 96.414062 226.5 98.113281 225.976562 99.890625 C 225.445312 101.628906 224.71875 103.117188 223.769531 104.371094 C 222.824219 105.601562 221.648438 106.542969 220.21875 107.199219 C 218.789062 107.84375 217.117188 108.171875 215.191406 108.179688 C 213.265625 108.191406 211.054688 107.84375 208.585938 107.089844 Z M 211.085938 106.367188 C 213.785156 107.175781 216.035156 106.960938 217.8125 105.746094 C 219.605469 104.511719 221.019531 102.167969 222.058594 98.714844 C 223.085938 95.285156 223.105469 92.523438 222.136719 90.449219 C 221.15625 88.382812 219.292969 86.921875 216.515625 86.089844 L 215.140625 85.683594 C 214.726562 85.558594 214.375 85.480469 214.085938 85.433594 C 213.800781 85.371094 213.554688 85.402344 213.359375 85.507812 C 213.15625 85.601562 212.976562 85.78125 212.828125 86.039062 C 212.664062 86.292969 212.515625 86.667969 212.378906 87.144531 L 207.769531 102.53125 C 207.597656 103.144531 207.503906 103.65625 207.503906 104.035156 C 207.503906 104.414062 207.585938 104.734375 207.769531 104.980469 C 207.949219 105.222656 208.246094 105.417969 208.621094 105.574219 C 209.003906 105.726562 209.492188 105.886719 210.054688 106.050781 Z M 211.085938 106.367188 " fill-opacity="1" fill-rule="nonzero"/><path fill="#ffffff" d="M 236.617188 121.21875 C 235.261719 120.199219 234.199219 119.007812 233.425781 117.644531 C 232.660156 116.28125 232.191406 114.832031 232.023438 113.320312 C 231.855469 111.816406 231.980469 110.28125 232.414062 108.730469 C 232.835938 107.191406 233.558594 105.730469 234.574219 104.375 C 235.519531 103.105469 236.660156 102.046875 237.988281 101.179688 C 239.332031 100.3125 240.75 99.71875 242.273438 99.40625 C 243.785156 99.097656 245.34375 99.082031 246.921875 99.398438 C 248.5 99.6875 250.003906 100.375 251.414062 101.4375 C 252.8125 102.472656 253.921875 103.671875 254.726562 105.046875 C 255.542969 106.410156 256.050781 107.863281 256.25 109.367188 C 256.460938 110.875 256.351562 112.394531 255.941406 113.949219 C 255.539062 115.492188 254.804688 116.964844 253.773438 118.363281 C 252.839844 119.589844 251.703125 120.632812 250.347656 121.492188 C 248.980469 122.355469 247.53125 122.949219 245.992188 123.277344 C 244.445312 123.601562 242.863281 123.609375 241.25 123.304688 C 239.617188 123 238.074219 122.300781 236.617188 121.21875 M 237.683594 120.265625 C 238.761719 121.058594 239.847656 121.535156 240.953125 121.65625 C 242.054688 121.78125 243.148438 121.632812 244.230469 121.21875 C 245.316406 120.808594 246.375 120.167969 247.410156 119.285156 C 248.429688 118.398438 249.410156 117.34375 250.328125 116.128906 C 251.179688 114.984375 251.898438 113.777344 252.460938 112.527344 C 253.003906 111.269531 253.339844 110.042969 253.449219 108.824219 C 253.554688 107.613281 253.375 106.433594 252.925781 105.304688 C 252.472656 104.179688 251.652344 103.164062 250.464844 102.269531 C 249.363281 101.46875 248.273438 101.007812 247.148438 100.917969 C 246.042969 100.828125 244.949219 101.023438 243.878906 101.46875 C 242.816406 101.921875 241.777344 102.601562 240.800781 103.507812 C 239.808594 104.402344 238.890625 105.429688 238.03125 106.570312 C 237.09375 107.84375 236.332031 109.105469 235.769531 110.386719 C 235.207031 111.660156 234.882812 112.894531 234.796875 114.082031 C 234.710938 115.273438 234.90625 116.398438 235.367188 117.453125 C 235.824219 118.507812 236.597656 119.449219 237.683594 120.265625 " fill-opacity="1" fill-rule="nonzero"/><path fill="#ffffff" d="M 260.3125 147.363281 L 261.222656 146.789062 C 262.328125 148.589844 263.632812 149.027344 265.113281 148.097656 L 279.148438 139.105469 L 257.816406 143.335938 L 257.28125 142.492188 L 270.019531 124.980469 L 256.507812 133.191406 C 254.710938 134.28125 254.441406 135.84375 255.703125 137.902344 L 254.785156 138.460938 L 250.238281 131.125 L 251.148438 130.558594 C 252.289062 132.40625 253.878906 132.761719 255.902344 131.664062 L 269.667969 123.46875 L 269.976562 123.285156 C 270.199219 123.132812 270.394531 122.992188 270.539062 122.832031 C 270.691406 122.660156 270.769531 122.417969 270.785156 122.121094 C 270.792969 121.824219 270.707031 121.445312 270.523438 120.996094 C 270.347656 120.550781 270.039062 119.988281 269.609375 119.289062 L 270.523438 118.714844 L 274.421875 125 L 262.78125 140.738281 L 281.886719 137.039062 L 285.710938 143.226562 L 284.792969 143.789062 C 284.382812 143.117188 284.003906 142.621094 283.683594 142.292969 C 283.34375 141.96875 283.035156 141.761719 282.75 141.667969 C 282.457031 141.589844 282.179688 141.589844 281.914062 141.675781 C 281.65625 141.761719 281.414062 141.878906 281.175781 142.03125 L 267.28125 151.113281 C 265.652344 152.117188 265.410156 153.546875 266.554688 155.398438 L 265.640625 155.957031 Z M 260.3125 147.363281 " fill-opacity="1" fill-rule="nonzero"/><path stroke-linecap="butt" transform="matrix(0.748636, -0.0452159, 0.0452159, 0.748636, 257.067878, 174.249524)" fill="none" stroke-linejoin="miter" d="M 0.000101413 1.002465 L 66.804136 0.998678 " stroke="#ffffff" stroke-width="2" stroke-opacity="1" stroke-miterlimit="4"/><path stroke-linecap="butt" transform="matrix(0.748988, 0.0389379, -0.0389379, 0.748988, 257.199919, 201.201316)" fill="none" stroke-linejoin="miter" d="M -0.00117316 0.998612 L 66.807694 0.998831 " stroke="#ffffff" stroke-width="2" stroke-opacity="1" stroke-miterlimit="4"/><path stroke-linecap="butt" transform="matrix(-0.748498, 0.0474482, -0.0474482, -0.748498, 116.440346, 202.280188)" fill="none" stroke-linejoin="miter" d="M -0.0022112 1.000448 L 63.656481 1.001733 " stroke="#ffffff" stroke-width="2" stroke-opacity="1" stroke-miterlimit="4"/><path stroke-linecap="butt" transform="matrix(-0.748886, -0.0408623, 0.0408623, -0.748886, 116.303529, 175.328602)" fill="none" stroke-linejoin="miter" d="M 0.000969183 1.002072 L 63.663251 1.002307 " stroke="#ffffff" stroke-width="2" stroke-opacity="1" stroke-miterlimit="4"/><g fill="#ffffff" fill-opacity="1"><g transform="translate(74.810544, 193.889812)"><g><path d="M 9.875 0 L 0.671875 0 L 0.671875 -0.5625 C 1.367188 -0.625 1.804688 -0.710938 1.984375 -0.828125 C 2.171875 -0.953125 2.265625 -1.179688 2.265625 -1.515625 L 2.265625 -9.46875 C 2.265625 -9.832031 2.125 -10.085938 1.84375 -10.234375 C 1.5625 -10.390625 1.171875 -10.488281 0.671875 -10.53125 L 0.671875 -11.09375 L 9.25 -11.09375 L 9.25 -8.421875 L 8.671875 -8.421875 C 8.566406 -8.828125 8.359375 -9.222656 8.046875 -9.609375 C 7.742188 -9.992188 7.484375 -10.234375 7.265625 -10.328125 C 7.046875 -10.421875 6.515625 -10.46875 5.671875 -10.46875 L 3.921875 -10.46875 L 3.921875 -6.0625 L 5.171875 -6.0625 C 5.765625 -6.0625 6.191406 -6.191406 6.453125 -6.453125 C 6.710938 -6.722656 6.894531 -7.195312 7 -7.875 L 7.578125 -7.875 L 7.578125 -3.546875 L 7 -3.546875 C 6.96875 -3.804688 6.890625 -4.109375 6.765625 -4.453125 C 6.648438 -4.804688 6.484375 -5.054688 6.265625 -5.203125 C 6.046875 -5.347656 5.679688 -5.421875 5.171875 -5.421875 L 3.921875 -5.421875 L 3.921875 -2.09375 C 3.921875 -1.457031 4.019531 -1.054688 4.21875 -0.890625 C 4.425781 -0.722656 4.957031 -0.640625 5.8125 -0.640625 L 6.484375 -0.640625 C 7.210938 -0.640625 7.703125 -0.695312 7.953125 -0.8125 C 8.210938 -0.925781 8.492188 -1.238281 8.796875 -1.75 C 9.109375 -2.269531 9.351562 -2.773438 9.53125 -3.265625 L 10.078125 -3.265625 Z M 9.875 0 "/></g></g></g><g fill="#ffffff" fill-opacity="1"><g transform="translate(85.253311, 193.889812)"><g><path d="M 1.8125 -0.5625 L 1.46875 0 L 0.859375 0 L 0.734375 -3.796875 L 1.359375 -3.796875 C 1.992188 -1.566406 3.113281 -0.453125 4.71875 -0.453125 C 6.113281 -0.453125 6.8125 -1.101562 6.8125 -2.40625 C 6.8125 -2.789062 6.71875 -3.144531 6.53125 -3.46875 C 6.34375 -3.789062 6.117188 -4.035156 5.859375 -4.203125 C 5.609375 -4.378906 5.222656 -4.566406 4.703125 -4.765625 C 3.679688 -5.140625 2.953125 -5.445312 2.515625 -5.6875 C 2.078125 -5.9375 1.722656 -6.28125 1.453125 -6.71875 C 1.179688 -7.164062 1.046875 -7.703125 1.046875 -8.328125 C 1.046875 -9.160156 1.375 -9.867188 2.03125 -10.453125 C 2.6875 -11.035156 3.476562 -11.328125 4.40625 -11.328125 C 5.21875 -11.328125 6.046875 -11.070312 6.890625 -10.5625 L 7.203125 -11.09375 L 7.828125 -11.09375 L 7.890625 -7.40625 L 7.25 -7.40625 C 6.914062 -8.664062 6.515625 -9.519531 6.046875 -9.96875 C 5.585938 -10.425781 5.007812 -10.65625 4.3125 -10.65625 C 3.800781 -10.65625 3.375 -10.492188 3.03125 -10.171875 C 2.6875 -9.859375 2.515625 -9.472656 2.515625 -9.015625 C 2.515625 -8.472656 2.660156 -8.023438 2.953125 -7.671875 C 3.253906 -7.316406 3.914062 -6.953125 4.9375 -6.578125 C 6.257812 -6.097656 7.160156 -5.613281 7.640625 -5.125 C 8.117188 -4.632812 8.359375 -3.976562 8.359375 -3.15625 C 8.359375 -2.164062 7.992188 -1.351562 7.265625 -0.71875 C 6.546875 -0.0820312 5.648438 0.234375 4.578125 0.234375 C 3.617188 0.234375 2.695312 -0.03125 1.8125 -0.5625 Z M 1.8125 -0.5625 "/></g></g></g><g fill="#ffffff" fill-opacity="1"><g transform="translate(94.227687, 193.889812)"><g><path d="M 9.234375 -8.078125 C 9.117188 -8.503906 8.910156 -8.953125 8.609375 -9.421875 C 8.304688 -9.890625 8.039062 -10.179688 7.8125 -10.296875 C 7.59375 -10.421875 7.070312 -10.484375 6.25 -10.484375 L 5.78125 -10.484375 L 5.78125 -1.625 C 5.78125 -1.332031 5.875 -1.101562 6.0625 -0.9375 C 6.25 -0.769531 6.753906 -0.644531 7.578125 -0.5625 L 7.578125 0 L 2.34375 0 L 2.34375 -0.5625 C 3.101562 -0.613281 3.585938 -0.695312 3.796875 -0.8125 C 4.003906 -0.9375 4.109375 -1.179688 4.109375 -1.546875 L 4.109375 -10.484375 L 3.671875 -10.484375 C 2.910156 -10.484375 2.421875 -10.441406 2.203125 -10.359375 C 1.984375 -10.285156 1.707031 -10.015625 1.375 -9.546875 C 1.050781 -9.078125 0.816406 -8.585938 0.671875 -8.078125 L 0.109375 -8.078125 L 0.109375 -11.09375 L 9.78125 -11.09375 L 9.78125 -8.078125 Z M 9.234375 -8.078125 "/></g></g></g><g fill="#ffffff" fill-opacity="1"><g transform="translate(265.248853, 193.889841)"><g><path d="M 1.625 -0.5625 C 3.113281 -0.59375 3.859375 -0.941406 3.859375 -1.609375 L 3.859375 -9.6875 L 1.59375 -9.6875 L 1.59375 -10.34375 L 2.34375 -10.34375 C 2.832031 -10.34375 3.304688 -10.4375 3.765625 -10.625 C 4.234375 -10.820312 4.578125 -11.054688 4.796875 -11.328125 L 5.453125 -11.328125 C 5.398438 -9.972656 5.375 -9.171875 5.375 -8.921875 L 5.375 -1.609375 C 5.375 -1.273438 5.507812 -1.023438 5.78125 -0.859375 C 6.050781 -0.703125 6.632812 -0.601562 7.53125 -0.5625 L 7.53125 0 L 1.625 0 Z M 1.625 -0.5625 "/></g></g></g><g fill="#ffffff" fill-opacity="1"><g transform="translate(274.254472, 193.889841)"><g><path d="M 2.109375 0.203125 L 1.984375 -0.515625 L 2.671875 -0.640625 C 3.335938 -0.773438 4.082031 -1.179688 4.90625 -1.859375 C 5.726562 -2.535156 6.269531 -3.609375 6.53125 -5.078125 C 5.726562 -4.367188 4.820312 -4.015625 3.8125 -4.015625 C 2.9375 -4.015625 2.191406 -4.347656 1.578125 -5.015625 C 0.960938 -5.691406 0.65625 -6.519531 0.65625 -7.5 C 0.65625 -8.582031 1.019531 -9.492188 1.75 -10.234375 C 2.476562 -10.972656 3.375 -11.34375 4.4375 -11.34375 C 5.59375 -11.34375 6.519531 -10.925781 7.21875 -10.09375 C 7.914062 -9.257812 8.265625 -8.140625 8.265625 -6.734375 C 8.265625 -4.910156 7.71875 -3.367188 6.625 -2.109375 C 5.53125 -0.847656 4.023438 -0.078125 2.109375 0.203125 Z M 6.5625 -5.859375 L 6.59375 -6.8125 C 6.59375 -8.019531 6.394531 -8.972656 6 -9.671875 C 5.601562 -10.367188 5.078125 -10.71875 4.421875 -10.71875 C 3.804688 -10.71875 3.304688 -10.445312 2.921875 -9.90625 C 2.546875 -9.375 2.359375 -8.644531 2.359375 -7.71875 C 2.359375 -6.875 2.550781 -6.195312 2.9375 -5.6875 C 3.320312 -5.175781 3.84375 -4.921875 4.5 -4.921875 C 5.320312 -4.921875 6.007812 -5.234375 6.5625 -5.859375 Z M 6.5625 -5.859375 "/></g></g></g><g fill="#ffffff" fill-opacity="1"><g transform="translate(283.26009, 193.889841)"><g><path d="M 2.984375 -5.671875 C 1.660156 -6.410156 1 -7.316406 1 -8.390625 C 1 -9.210938 1.351562 -9.914062 2.0625 -10.5 C 2.769531 -11.082031 3.644531 -11.375 4.6875 -11.375 C 5.6875 -11.375 6.5 -11.109375 7.125 -10.578125 C 7.75 -10.046875 8.0625 -9.363281 8.0625 -8.53125 C 8.0625 -7.382812 7.382812 -6.5 6.03125 -5.875 C 6.90625 -5.5 7.523438 -5.082031 7.890625 -4.625 C 8.265625 -4.175781 8.453125 -3.617188 8.453125 -2.953125 C 8.453125 -2.054688 8.066406 -1.289062 7.296875 -0.65625 C 6.523438 -0.03125 5.546875 0.28125 4.359375 0.28125 C 3.210938 0.28125 2.289062 -0.00390625 1.59375 -0.578125 C 0.894531 -1.160156 0.546875 -1.910156 0.546875 -2.828125 C 0.546875 -4.097656 1.359375 -5.046875 2.984375 -5.671875 Z M 5.46875 -6.140625 C 6.195312 -6.585938 6.5625 -7.410156 6.5625 -8.609375 C 6.5625 -9.222656 6.375 -9.734375 6 -10.140625 C 5.632812 -10.546875 5.148438 -10.75 4.546875 -10.75 C 3.953125 -10.75 3.46875 -10.554688 3.09375 -10.171875 C 2.726562 -9.785156 2.546875 -9.3125 2.546875 -8.75 C 2.546875 -8.175781 2.773438 -7.703125 3.234375 -7.328125 C 3.691406 -6.953125 4.4375 -6.554688 5.46875 -6.140625 Z M 3.53125 -5.390625 C 2.5625 -4.867188 2.078125 -4.050781 2.078125 -2.9375 C 2.078125 -2.164062 2.300781 -1.539062 2.75 -1.0625 C 3.207031 -0.59375 3.804688 -0.359375 4.546875 -0.359375 C 5.265625 -0.359375 5.835938 -0.5625 6.265625 -0.96875 C 6.691406 -1.382812 6.90625 -1.921875 6.90625 -2.578125 C 6.90625 -3.128906 6.6875 -3.59375 6.25 -3.96875 C 5.820312 -4.351562 4.914062 -4.828125 3.53125 -5.390625 Z M 3.53125 -5.390625 "/></g></g></g><g fill="#ffffff" fill-opacity="1"><g transform="translate(292.265709, 193.889841)"><g><path d="M 2.109375 0.203125 L 1.984375 -0.515625 L 2.671875 -0.640625 C 3.335938 -0.773438 4.082031 -1.179688 4.90625 -1.859375 C 5.726562 -2.535156 6.269531 -3.609375 6.53125 -5.078125 C 5.726562 -4.367188 4.820312 -4.015625 3.8125 -4.015625 C 2.9375 -4.015625 2.191406 -4.347656 1.578125 -5.015625 C 0.960938 -5.691406 0.65625 -6.519531 0.65625 -7.5 C 0.65625 -8.582031 1.019531 -9.492188 1.75 -10.234375 C 2.476562 -10.972656 3.375 -11.34375 4.4375 -11.34375 C 5.59375 -11.34375 6.519531 -10.925781 7.21875 -10.09375 C 7.914062 -9.257812 8.265625 -8.140625 8.265625 -6.734375 C 8.265625 -4.910156 7.71875 -3.367188 6.625 -2.109375 C 5.53125 -0.847656 4.023438 -0.078125 2.109375 0.203125 Z M 6.5625 -5.859375 L 6.59375 -6.8125 C 6.59375 -8.019531 6.394531 -8.972656 6 -9.671875 C 5.601562 -10.367188 5.078125 -10.71875 4.421875 -10.71875 C 3.804688 -10.71875 3.304688 -10.445312 2.921875 -9.90625 C 2.546875 -9.375 2.359375 -8.644531 2.359375 -7.71875 C 2.359375 -6.875 2.550781 -6.195312 2.9375 -5.6875 C 3.320312 -5.175781 3.84375 -4.921875 4.5 -4.921875 C 5.320312 -4.921875 6.007812 -5.234375 6.5625 -5.859375 Z M 6.5625 -5.859375 "/></g></g></g></svg>