<svg xmlns:x="http://ns.adobe.com/Extensibility/1.0/" xmlns:i="http://ns.adobe.com/AdobeIllustrator/10.0/" xmlns:graph="http://ns.adobe.com/Graphs/1.0/" xmlns="http://www.w3.org/2000/svg" xmlns:xlink="http://www.w3.org/1999/xlink" version="1.1" width="60" height="60" enable-background="new 0 0 266.334 61.167" xml:space="preserve"><rect id="backgroundrect" width="100%" height="100%" x="0" y="0" fill="none" stroke="none" class="" style=""/>
<metadata>
	<sfw xmlns="http://ns.adobe.com/SaveForWeb/1.0/">
		<slices/>
		<sliceSourceBounds width="255.523" height="58.453" x="295.481" y="268.263" bottomLeftOrigin="true"/>
	</sfw>
</metadata>


<g class="currentLayer" style=""><title>Layer 1</title><g id="isotype" class="selected">
	<g id="boat">
		<g id="barco">
			<path fill="#7CA7AD" d="M24.067101544380186,23.150100506782533 c0,0 2.507,-3.8920000000000003 6.08,-3.8120000000000003 c3.572,0.0800000000000001 6.107,3.6510000000000002 6.107,3.6510000000000002 S31.853101544380188,20.69810050678253 24.067101544380186,23.150100506782533 " id="svg_18"/>
			<path fill="#202945" d="M16.65410154438019,26.432100506782533 c0,0 -0.669000000000001,-0.772 0.5840000000000006,-1.361 c1.254,-0.5880000000000006 5.3870000000000005,-2.212 13.12,-2.238 c7.736,-0.030000000000000047 11.677,1.3330000000000002 12.403,1.7040000000000002 c0.798,0.4090000000000003 1.172,0.6410000000000009 0.8790000000000008,1.439 c0,0 -0.2930000000000003,-0.798 -1.521,-1.172 c-1.226,-0.3720000000000004 -5.517,-1.528 -11.707,-1.359 c-6.774,0.18700000000000022 -11.498,1.408 -12.853,2.08 C16.550101544380187,26.02910050678253 16.65410154438019,26.432100506782533 16.65410154438019,26.432100506782533 " id="svg_19"/>
			<path fill="#7CA7AD" d="M19.559101544380187,28.62010050678253 l10.785,4.106 c0.0630000000000001,-0.4990000000000004 0.12000000000000002,-0.981 0.16000000000000025,-1.452 L19.559101544380187,28.62010050678253 z" id="svg_20"/>
			<path fill="#202945" d="M30.836101544380185,31.252100506782533 c0.15900000000000022,-1.99 0.1120000000000001,-4.555 -0.4220000000000003,-7.7010000000000005 c0,0 0.513,3.17 0.09100000000000018,7.722 c-0.04000000000000005,0.4700000000000003 -0.0970000000000002,0.9530000000000006 -0.16000000000000025,1.452 c-0.1530000000000002,1.18 -0.3720000000000004,2.434 -0.676000000000001,3.732 c0,0 0.6440000000000009,-1.244 1.005,-3.7520000000000002 l10.754,-4.916 L30.836101544380185,31.252100506782533 z" id="svg_21"/>
			<path fill="#202945" d="M43.07910154438019,33.300100506782535 c-0.4790000000000003,-1.252 -1.411,-2.228 -5.199,-1.03 c-3.2640000000000002,1.034 -7.189,4.301 -8.155,5.146 c-0.542,-0.38500000000000045 -7.775,-5.459 -10.644,-5.358 c-4.178,0.136 -2.6830000000000007,2.565 -1.6550000000000002,2.869 c0.44500000000000045,0.11800000000000013 0.8810000000000008,-0.14700000000000019 1.147,-0.6030000000000006 c0.267,-0.455 1.227,-1.441 3.334,-0.799 c1.901,0.5780000000000006 4.779,1.775 7.087,3.403 c-1.035,-0.7060000000000006 -3.041,-1.862 -5.14,-1.8860000000000001 c-3.201,-0.02900000000000004 -4.399,2.563 -4.375,3.6020000000000003 c-0.0010000000000000015,1.586 1.185,2.158 1.92,1.6550000000000002 c0.7340000000000008,-0.503 0.010000000000000012,-1.4380000000000002 0.3720000000000004,-2.533 c0.3620000000000003,-1.101 2.6910000000000007,-2.1630000000000003 4.482,-1.866 c1.521,0.2470000000000002 2.959,1.201 3.355,1.488 c0.03800000000000001,0.02500000000000004 0.0760000000000001,0.05700000000000006 0.1120000000000001,0.0810000000000001 c3.119,-2.452 6.533,-3.488 7.546,-3.7590000000000003 c1.015,-0.271 2.883,-0.2870000000000003 3.625,0.9410000000000006 C41.63910154438019,35.87710050678253 43.55910154438019,34.55110050678253 43.07910154438019,33.300100506782535 " id="svg_22"/>
		</g>
	</g>
	<path id="circle" fill="#202945" d="M29.75810154438019,0.5291005067825316 c-16.143,0 -29.229,13.085 -29.229,29.228 c0,16.146 13.085,29.225 29.229,29.225 s29.229,-13.079 29.229,-29.225 C58.98610154438019,13.614100506782531 45.90210154438019,0.5291005067825316 29.75810154438019,0.5291005067825316 M29.70010154438019,47.46910050678253 c-9.877,0 -17.884,-8.003 -17.884,-17.882 c0,-9.878 8.007,-17.886 17.884,-17.886 s17.886,8.008 17.886,17.886 C47.58710154438019,39.46610050678253 39.57810154438019,47.46910050678253 29.70010154438019,47.46910050678253 "/>
	<g id="text">
		<path fill="#FFFFFF" d="M9.392101544380187,40.61610050678253 c0.14500000000000018,0.44400000000000045 0.17400000000000004,0.8440000000000006 0.08600000000000013,1.198 c-0.0810000000000001,0.3510000000000003 -0.3020000000000003,0.6160000000000008 -0.6530000000000009,0.793 c-0.275,0.134 -0.531,0.20400000000000001 -0.7680000000000009,0.20700000000000018 c-0.23500000000000001,0 -0.453,-0.04300000000000007 -0.6500000000000009,-0.14600000000000019 c-0.1990000000000003,-0.10500000000000002 -0.3770000000000004,-0.252 -0.537,-0.45 c-0.16000000000000025,-0.2 -0.3030000000000003,-0.4200000000000003 -0.4300000000000003,-0.677000000000001 c-0.2100000000000002,-0.4180000000000003 -0.4100000000000003,-0.8360000000000006 -0.6010000000000006,-1.25 c-0.19000000000000022,-0.405 -0.4070000000000003,-0.8540000000000006 -0.6490000000000009,-1.348 l0.23,-0.1110000000000001 c0.23900000000000018,0.4840000000000003 0.501,0.6560000000000009 0.789,0.511 l3.641,-1.804 c0.3570000000000003,-0.17800000000000019 0.4110000000000003,-0.521 0.15900000000000022,-1.021 l0.23900000000000018,-0.11900000000000013 l1.095,2.211 c0.134,0.266 0.23700000000000004,0.528 0.3090000000000004,0.783 c0.07200000000000002,0.253 0.10200000000000002,0.4840000000000003 0.09000000000000016,0.6950000000000012 c-0.012000000000000012,0.21800000000000022 -0.06800000000000012,0.4140000000000003 -0.17,0.5870000000000006 c-0.10300000000000002,0.17 -0.263,0.3080000000000004 -0.4830000000000003,0.4180000000000003 c-0.1680000000000003,0.08300000000000012 -0.32500000000000046,0.128 -0.4700000000000003,0.134 c-0.14600000000000019,0.014000000000000012 -0.2870000000000003,-0.009000000000000022 -0.4220000000000003,-0.0630000000000001 c-0.135,-0.04900000000000006 -0.268,-0.1230000000000001 -0.39300000000000046,-0.21900000000000022 c-0.127,-0.10200000000000002 -0.254,-0.2170000000000002 -0.3780000000000004,-0.3460000000000006 L9.392101544380187,40.61610050678253 zM6.622101544380188,41.17910050678253 c0.08500000000000013,0.17500000000000004 0.1840000000000002,0.32500000000000046 0.2950000000000003,0.45 c0.1130000000000001,0.13 0.24000000000000019,0.22800000000000026 0.38200000000000045,0.2890000000000003 c0.14500000000000018,0.0660000000000001 0.3000000000000003,0.0940000000000002 0.4710000000000003,0.08600000000000013 c0.171,-0.010000000000000012 0.3580000000000003,-0.0630000000000001 0.561,-0.1680000000000003 c0.2420000000000002,-0.11500000000000012 0.4170000000000003,-0.25 0.529,-0.3960000000000005 c0.1090000000000001,-0.14600000000000019 0.17,-0.3110000000000004 0.1840000000000002,-0.4880000000000003 c0.013000000000000022,-0.17800000000000019 -0.014000000000000012,-0.3770000000000004 -0.08600000000000013,-0.5900000000000006 c-0.07100000000000002,-0.20900000000000019 -0.16600000000000026,-0.4370000000000004 -0.2850000000000003,-0.681000000000001 l-0.137,-0.271 c-0.07200000000000002,-0.14700000000000019 -0.20500000000000004,-0.17400000000000004 -0.3990000000000005,-0.0800000000000001 l-1.653,0.8220000000000006 c-0.1990000000000003,0.0980000000000002 -0.20800000000000018,0.32700000000000046 -0.02700000000000005,0.6950000000000012 L6.622101544380188,41.17910050678253 zM10.965101544380188,38.59510050678253 c-0.17500000000000004,-0.3540000000000003 -0.3590000000000003,-0.4850000000000003 -0.549,-0.3960000000000005 l-1.475,0.7350000000000008 c-0.14500000000000018,0.06700000000000012 -0.1790000000000002,0.1810000000000002 -0.10400000000000002,0.32600000000000046 c0.17400000000000004,0.3510000000000003 0.32800000000000046,0.6230000000000008 0.4710000000000003,0.812 c0.137,0.19500000000000026 0.275,0.3340000000000005 0.4140000000000003,0.404 c0.134,0.0760000000000001 0.275,0.10200000000000002 0.4180000000000003,0.0760000000000001 c0.14100000000000001,-0.02700000000000005 0.3020000000000003,-0.09000000000000016 0.4800000000000003,-0.17400000000000004 c0.659000000000001,-0.32700000000000046 0.8240000000000006,-0.8250000000000006 0.4900000000000003,-1.49 L10.965101544380188,38.59510050678253 z" id="svg_23"/>
		<path fill="#FFFFFF" d="M11.07510154438019,48.03910050678253 c-0.2860000000000003,-0.2820000000000003 -0.4980000000000004,-0.6020000000000006 -0.6320000000000009,-0.9510000000000006 c-0.134,-0.3460000000000006 -0.19600000000000026,-0.7000000000000006 -0.1830000000000002,-1.065 c0.012000000000000012,-0.3640000000000003 0.0950000000000002,-0.7180000000000006 0.24900000000000022,-1.065 c0.1540000000000002,-0.3520000000000003 0.3730000000000004,-0.668000000000001 0.661000000000001,-0.9550000000000006 c0.265,-0.266 0.5680000000000006,-0.4770000000000003 0.915,-0.6390000000000009 c0.3430000000000005,-0.15600000000000022 0.6970000000000012,-0.2460000000000002 1.067,-0.267 c0.3680000000000003,-0.024000000000000025 0.7340000000000008,0.024000000000000025 1.097,0.1510000000000002 c0.3630000000000003,0.125 0.6920000000000012,0.3400000000000005 0.99,0.6340000000000009 c0.2930000000000003,0.2950000000000003 0.513,0.6160000000000008 0.658000000000001,0.971 c0.14600000000000019,0.3490000000000006 0.2170000000000002,0.7040000000000006 0.20900000000000019,1.067 c-0.004000000000000006,0.3630000000000003 -0.08200000000000011,0.7180000000000006 -0.23,1.068 c-0.14700000000000019,0.3500000000000003 -0.3700000000000004,0.672000000000001 -0.663000000000001,0.9670000000000006 c-0.257,0.258 -0.5630000000000006,0.465 -0.915,0.6230000000000008 c-0.3520000000000003,0.1500000000000002 -0.7110000000000006,0.2440000000000002 -1.087,0.269 c-0.3720000000000004,0.022000000000000047 -0.7480000000000008,-0.024000000000000025 -1.119,-0.1530000000000002 C11.719101544380187,48.56410050678253 11.379101544380188,48.35110050678253 11.07510154438019,48.03910050678253 M11.35710154438019,47.85410050678253 c0.22800000000000026,0.22900000000000026 0.466,0.3740000000000004 0.7240000000000006,0.4410000000000004 c0.253,0.0630000000000001 0.516,0.0660000000000001 0.786,0.005000000000000007 c0.271,-0.05800000000000007 0.543,-0.17500000000000004 0.8160000000000006,-0.3450000000000006 c0.272,-0.17200000000000001 0.537,-0.39100000000000046 0.795,-0.6460000000000009 c0.2430000000000002,-0.23800000000000004 0.45,-0.4970000000000004 0.6240000000000008,-0.771 c0.17500000000000004,-0.276 0.3000000000000003,-0.556 0.3660000000000003,-0.8400000000000006 c0.0640000000000001,-0.281 0.0640000000000001,-0.5630000000000006 -0.004000000000000006,-0.8490000000000006 c-0.06800000000000012,-0.278 -0.22800000000000026,-0.548 -0.4780000000000003,-0.795 c-0.23,-0.231 -0.4730000000000003,-0.3770000000000004 -0.7340000000000008,-0.4370000000000004 c-0.258,-0.05600000000000005 -0.525,-0.05100000000000007 -0.789,0.022000000000000047 c-0.269,0.0630000000000001 -0.534,0.18800000000000022 -0.795,0.3670000000000003 c-0.266,0.1800000000000002 -0.52,0.38900000000000046 -0.7610000000000009,0.6320000000000009 c-0.266,0.266 -0.4860000000000003,0.537 -0.663000000000001,0.8200000000000006 c-0.17800000000000019,0.281 -0.2960000000000003,0.557 -0.3590000000000003,0.8360000000000006 c-0.05700000000000006,0.279 -0.05100000000000007,0.551 0.020000000000000025,0.8140000000000006 C10.980101544380188,47.38110050678253 11.129101544380188,47.623100506782535 11.35710154438019,47.85410050678253 " id="svg_24"/>
		<path fill="#FFFFFF" d="M17.751101544380187,52.77410050678253 l0.125,-0.22300000000000025 c0.07500000000000002,0.02500000000000004 0.15500000000000022,0.05600000000000005 0.23800000000000004,0.08600000000000013 c0.08200000000000011,0.03100000000000005 0.15900000000000022,0.05900000000000007 0.232,0.0790000000000001 c0.0660000000000001,0.019000000000000024 0.132,0.026000000000000047 0.18700000000000022,0.026000000000000047 c0.05400000000000009,0.004000000000000006 0.09000000000000016,-0.015000000000000022 0.1070000000000001,-0.04300000000000007 c0.005000000000000007,-0.022000000000000047 0.017000000000000032,-0.05400000000000009 0.03600000000000001,-0.0940000000000002 c0.018000000000000023,-0.03700000000000001 0.02900000000000004,-0.0940000000000002 0.03300000000000005,-0.15800000000000022 l0.16000000000000025,-1.111 c0.018000000000000023,-0.15600000000000022 -0.1,-0.3070000000000004 -0.3510000000000003,-0.4390000000000004 l-1.12,-0.6040000000000006 c-0.18900000000000022,-0.10400000000000002 -0.3390000000000005,-0.10200000000000002 -0.451,0.008000000000000012 l-0.675000000000001,0.6410000000000009 c-0.04600000000000009,0.030000000000000047 -0.09100000000000018,0.09000000000000016 -0.136,0.17600000000000018 c-0.125,0.22800000000000026 0.03300000000000005,0.463 0.4770000000000003,0.7030000000000006 l-0.14400000000000004,0.262 l-1.6900000000000008,-0.912 l0.14100000000000001,-0.264 c0.1530000000000002,0.0650000000000001 0.3030000000000003,0.08400000000000012 0.454,0.05100000000000007 c0.1510000000000002,-0.03700000000000001 0.3080000000000004,-0.11900000000000013 0.4700000000000003,-0.252 l4.123,-3.316 l0.17600000000000018,0.2120000000000002 l-0.6300000000000008,5.427 c0.013000000000000022,0.14100000000000001 0.03400000000000006,0.23800000000000004 0.060000000000000074,0.2820000000000003 c0.003000000000000007,0.015000000000000022 0.03900000000000005,0.05600000000000005 0.10200000000000002,0.1120000000000001 c0.06200000000000009,0.05800000000000007 0.1520000000000002,0.139 0.264,0.24000000000000019 l-0.1240000000000001,0.22600000000000026 L17.751101544380187,52.77410050678253 zM19.27810154438019,48.38710050678253 l-1.513,1.223 c-0.12000000000000002,0.09000000000000016 -0.19300000000000025,0.16000000000000025 -0.21900000000000022,0.20900000000000019 c-0.04200000000000006,0.07400000000000002 0.028000000000000025,0.16300000000000026 0.2150000000000002,0.264 l0.9450000000000006,0.513 c0.1520000000000002,0.0780000000000001 0.2430000000000002,0.09000000000000016 0.276,0.030000000000000047 c0.011000000000000022,-0.022000000000000047 0.02900000000000004,-0.1230000000000001 0.052000000000000074,-0.2950000000000003 L19.27810154438019,48.38710050678253 z" id="svg_25"/>
		<path fill="#FFFFFF" d="M23.041101544380187,54.82810050678253 l0.052000000000000074,-0.252 c0.5990000000000006,0.127 0.9470000000000006,-0.06800000000000012 1.053,-0.5860000000000006 l0.795,-3.854 c0.044000000000000074,-0.20500000000000004 -0.07300000000000002,-0.3330000000000005 -0.3450000000000006,-0.39200000000000046 c-0.3680000000000003,-0.0800000000000001 -0.6930000000000012,-0.021000000000000033 -0.9690000000000006,0.17200000000000001 c-0.276,0.18700000000000022 -0.521,0.512 -0.7310000000000006,0.9660000000000006 l-0.2460000000000002,-0.11800000000000013 l0.5930000000000006,-1.7360000000000002 c0.125,0.04700000000000005 0.2420000000000002,0.08400000000000012 0.3570000000000003,0.11500000000000012 c0.1090000000000001,0.03800000000000001 0.22000000000000022,0.0630000000000001 0.32600000000000046,0.08500000000000013 l3.219,0.666000000000001 c0.12000000000000002,0.026000000000000047 0.24000000000000019,0.044000000000000074 0.3650000000000003,0.05800000000000007 c0.1230000000000001,0.015000000000000022 0.254,0.022000000000000047 0.38500000000000045,0.035 l-0.3620000000000003,1.7520000000000002 l-0.232,-0.016000000000000025 c0.11700000000000013,-0.908 -0.23500000000000001,-1.445 -1.058,-1.6110000000000002 c-0.275,-0.05500000000000005 -0.4330000000000004,0.006000000000000014 -0.4730000000000003,0.19500000000000026 l-0.795,3.855 c-0.1070000000000001,0.514 0.14200000000000004,0.8340000000000006 0.7430000000000008,0.9550000000000006 l-0.05100000000000007,0.252 L23.041101544380187,54.82810050678253 z" id="svg_26"/>
		<path fill="#FFFFFF" d="M37.406101544380185,52.90310050678253 c0.013000000000000022,0.2990000000000003 -0.024000000000000025,0.5710000000000006 -0.1130000000000001,0.8130000000000006 c-0.09100000000000018,0.2430000000000002 -0.22200000000000025,0.462 -0.38600000000000045,0.6420000000000009 c-0.1670000000000003,0.18800000000000022 -0.3650000000000003,0.3460000000000006 -0.5970000000000006,0.4710000000000003 c-0.234,0.1230000000000001 -0.4810000000000003,0.2170000000000002 -0.7480000000000008,0.276 c-0.3950000000000005,0.08700000000000013 -0.7690000000000009,0.0930000000000002 -1.119,0.019000000000000024 c-0.3510000000000003,-0.07 -0.669000000000001,-0.20500000000000004 -0.9510000000000006,-0.406 c-0.2840000000000003,-0.19700000000000026 -0.525,-0.459 -0.7220000000000006,-0.771 c-0.19700000000000026,-0.3180000000000004 -0.3380000000000005,-0.675000000000001 -0.4260000000000003,-1.064 c-0.09200000000000018,-0.4360000000000004 -0.1090000000000001,-0.8500000000000006 -0.04800000000000005,-1.239 c0.060000000000000074,-0.3940000000000005 0.1800000000000002,-0.7470000000000008 0.3590000000000003,-1.056 c0.17800000000000019,-0.3130000000000004 0.4070000000000003,-0.5820000000000006 0.6890000000000012,-0.797 c0.2860000000000003,-0.2110000000000002 0.6040000000000006,-0.3540000000000003 0.9600000000000006,-0.4320000000000004 c0.4300000000000003,-0.0940000000000002 0.8590000000000008,-0.05600000000000005 1.294,0.11700000000000013 c0.1500000000000002,-0.2420000000000002 0.32500000000000046,-0.4 0.525,-0.4800000000000003 c0.019000000000000024,0.015000000000000022 0.060000000000000074,0.0650000000000001 0.11500000000000012,0.17200000000000001 c0.05800000000000007,0.101 0.11900000000000013,0.234 0.18800000000000022,0.4 c0.07,0.16600000000000026 0.136,0.3560000000000003 0.2100000000000002,0.5740000000000006 c0.07200000000000002,0.2140000000000002 0.132,0.45 0.18700000000000022,0.6950000000000012 l-0.2850000000000003,0.05800000000000007 c-0.2440000000000002,-0.504 -0.553,-0.8580000000000008 -0.93,-1.056 c-0.3750000000000004,-0.201 -0.777,-0.256 -1.198,-0.16400000000000026 c-0.3070000000000004,0.06800000000000012 -0.553,0.18900000000000022 -0.7410000000000008,0.3650000000000003 c-0.18900000000000022,0.1820000000000002 -0.33000000000000046,0.39100000000000046 -0.4220000000000003,0.6340000000000009 c-0.09100000000000018,0.2470000000000002 -0.14100000000000001,0.514 -0.14400000000000004,0.801 c-0.006000000000000014,0.2850000000000003 0.024000000000000025,0.5690000000000006 0.08500000000000013,0.8540000000000006 c0.08600000000000013,0.3960000000000005 0.202,0.7520000000000008 0.3430000000000005,1.076 c0.14400000000000004,0.32000000000000045 0.3180000000000004,0.5860000000000006 0.523,0.801 c0.20400000000000001,0.22000000000000022 0.4400000000000004,0.3710000000000004 0.7090000000000006,0.457 c0.272,0.09200000000000018 0.5730000000000006,0.0960000000000002 0.907,0.023000000000000048 c0.2140000000000002,-0.04200000000000006 0.3960000000000005,-0.1070000000000001 0.556,-0.18900000000000022 c0.16100000000000025,-0.08200000000000011 0.3000000000000003,-0.19400000000000026 0.4180000000000003,-0.3320000000000005 c0.11900000000000013,-0.137 0.21800000000000022,-0.3130000000000004 0.2950000000000003,-0.53 c0.0780000000000001,-0.20900000000000019 0.14300000000000004,-0.466 0.19500000000000026,-0.771 L37.406101544380185,52.90310050678253 z" id="svg_27"/>
		<path fill="#FFFFFF" d="M40.83110154438019,53.22810050678253 l-0.127,-0.22600000000000026 c0.4350000000000004,-0.2460000000000002 0.5770000000000006,-0.506 0.4240000000000003,-0.772 l-2,-3.51 c-0.2130000000000002,-0.3770000000000004 -0.5670000000000006,-0.4250000000000003 -1.056,-0.14400000000000004 l-0.127,-0.22700000000000026 l2.151,-1.225 l0.128,0.21900000000000022 c-0.458,0.262 -0.5770000000000006,0.5800000000000006 -0.3610000000000003,0.9550000000000006 l1.999,3.508 c0.11800000000000013,0.20900000000000019 0.3380000000000005,0.22300000000000025 0.660000000000001,0.03600000000000001 l0.3420000000000005,-0.19200000000000025 c0.22700000000000026,-0.125 0.4160000000000003,-0.256 0.5660000000000006,-0.38700000000000045 c0.1500000000000002,-0.132 0.268,-0.256 0.3520000000000003,-0.38500000000000045 c0.1510000000000002,-0.2420000000000002 0.14300000000000004,-0.7040000000000006 -0.018000000000000023,-1.393 l0.2170000000000002,-0.08600000000000013 l0.6500000000000009,1.6590000000000007 L40.83110154438019,53.22810050678253 z" id="svg_28"/>
		<path fill="#FFFFFF" d="M46.73110154438019,42.70010050678253 c-0.3660000000000003,-0.3450000000000006 -0.7510000000000008,-0.3020000000000003 -1.15,0.127 l-0.19000000000000022,-0.17600000000000018 l1.355,-1.449 l0.18700000000000022,0.17800000000000019 c-0.32100000000000045,0.3430000000000005 -0.3000000000000003,0.6890000000000012 0.06700000000000012,1.033 l1.8960000000000008,1.771 c0.23900000000000018,0.22500000000000026 0.4380000000000004,0.44800000000000045 0.5940000000000006,0.673000000000001 c0.15700000000000022,0.22200000000000025 0.2480000000000002,0.466 0.265,0.7240000000000006 c0.021000000000000033,0.26 -0.03900000000000005,0.537 -0.17800000000000019,0.8470000000000006 c-0.14200000000000004,0.3050000000000003 -0.39300000000000046,0.6470000000000009 -0.7550000000000008,1.032 c-0.23,0.2460000000000002 -0.462,0.4320000000000004 -0.7040000000000006,0.554 c-0.24000000000000019,0.1220000000000001 -0.4790000000000003,0.19200000000000025 -0.7180000000000006,0.20800000000000018 c-0.23800000000000004,0.014000000000000012 -0.4740000000000003,-0.023000000000000048 -0.6990000000000012,-0.11600000000000013 c-0.22700000000000026,-0.09200000000000018 -0.4370000000000004,-0.231 -0.6320000000000009,-0.4130000000000003 l-2.233,-2.089 c-0.3030000000000003,-0.2860000000000003 -0.6380000000000009,-0.22600000000000026 -1.008,0.16500000000000026 l-0.18600000000000022,-0.17600000000000018 l1.6880000000000006,-1.8010000000000002 l0.1840000000000002,0.17700000000000018 c-0.3700000000000004,0.3960000000000005 -0.403,0.7330000000000008 -0.1,1.017 l2.069,1.9380000000000002 c0.14100000000000001,0.133 0.2920000000000003,0.257 0.454,0.38500000000000045 c0.16300000000000026,0.1220000000000001 0.3380000000000005,0.2 0.525,0.23700000000000004 c0.19000000000000022,0.035 0.3950000000000005,0.014000000000000012 0.6160000000000008,-0.07500000000000002 c0.22100000000000022,-0.08400000000000012 0.464,-0.267 0.7350000000000008,-0.558 c0.2470000000000002,-0.269 0.4080000000000003,-0.519 0.4770000000000003,-0.7520000000000008 c0.0650000000000001,-0.23500000000000001 0.0790000000000001,-0.453 0.03800000000000001,-0.6490000000000009 c-0.04300000000000007,-0.19700000000000026 -0.126,-0.3730000000000004 -0.2450000000000002,-0.54 c-0.12100000000000002,-0.16500000000000026 -0.2480000000000002,-0.3090000000000004 -0.3750000000000004,-0.4300000000000003 L46.73110154438019,42.70010050678253 z" id="svg_29"/>
		<path fill="#FFFFFF" d="M51.14610154438019,38.05110050678253 c0.25,-0.39300000000000046 0.537,-0.676000000000001 0.8610000000000008,-0.8340000000000006 c0.33100000000000046,-0.15800000000000022 0.673000000000001,-0.15800000000000022 1.032,0 c0.281,0.1230000000000001 0.4980000000000004,0.281 0.6520000000000009,0.457 c0.1500000000000002,0.1830000000000002 0.254,0.3810000000000004 0.3010000000000003,0.5960000000000006 c0.04800000000000005,0.21900000000000022 0.04800000000000005,0.454 -0.004000000000000006,0.7040000000000006 c-0.04700000000000005,0.2460000000000002 -0.128,0.4980000000000004 -0.2470000000000002,0.7590000000000009 c-0.18800000000000022,0.4340000000000004 -0.3810000000000004,0.8540000000000006 -0.5750000000000006,1.26 c-0.19400000000000026,0.406 -0.403,0.8640000000000008 -0.6240000000000008,1.358 l-0.233,-0.10300000000000002 c0.22000000000000022,-0.4960000000000004 0.1830000000000002,-0.805 -0.1080000000000001,-0.937 l-3.715,-1.6470000000000002 c-0.3640000000000003,-0.16400000000000026 -0.659000000000001,0.015000000000000022 -0.8900000000000009,0.527 l-0.2420000000000002,-0.1090000000000001 l1,-2.25 c0.1240000000000001,-0.274 0.258,-0.52 0.4080000000000003,-0.7370000000000008 c0.1490000000000002,-0.21800000000000022 0.3110000000000004,-0.38800000000000046 0.4830000000000003,-0.517 c0.1690000000000003,-0.131 0.3570000000000003,-0.20700000000000018 0.554,-0.23500000000000001 c0.19500000000000026,-0.03700000000000001 0.406,0.002000000000000003 0.6300000000000008,0.0990000000000002 c0.17200000000000001,0.0790000000000001 0.3070000000000004,0.17400000000000004 0.4090000000000003,0.271 c0.0990000000000002,0.1090000000000001 0.17,0.23 0.22000000000000022,0.3690000000000003 c0.05000000000000007,0.135 0.07400000000000002,0.2850000000000003 0.0780000000000001,0.44500000000000045 c0.004000000000000006,0.15600000000000022 -0.004000000000000006,0.32800000000000046 -0.022000000000000047,0.508 L51.14610154438019,38.05110050678253 zM48.58510154438019,38.13310050678253 c-0.15900000000000022,0.3610000000000003 -0.14600000000000019,0.5860000000000006 0.05000000000000007,0.670000000000001 l1.505,0.669000000000001 c0.14400000000000004,0.0650000000000001 0.254,0.022000000000000047 0.3180000000000004,-0.13 c0.15800000000000022,-0.3540000000000003 0.269,-0.6480000000000009 0.32600000000000046,-0.8810000000000008 c0.060000000000000074,-0.23 0.0760000000000001,-0.4260000000000003 0.04500000000000008,-0.5750000000000006 c-0.02700000000000005,-0.1530000000000002 -0.0980000000000002,-0.274 -0.20800000000000018,-0.3690000000000003 c-0.1110000000000001,-0.0950000000000002 -0.259,-0.1810000000000002 -0.4410000000000004,-0.261 c-0.670000000000001,-0.2990000000000003 -1.157,-0.10500000000000002 -1.458,0.5700000000000006 L48.58510154438019,38.13310050678253 zM53.348101544380185,39.82310050678253 c0.0800000000000001,-0.17400000000000004 0.132,-0.3470000000000006 0.15900000000000022,-0.513 c0.02900000000000004,-0.17 0.021000000000000033,-0.33000000000000046 -0.021000000000000033,-0.4780000000000003 c-0.04200000000000006,-0.15500000000000022 -0.12000000000000002,-0.2930000000000003 -0.23600000000000004,-0.4220000000000003 c-0.11500000000000012,-0.11900000000000013 -0.279,-0.233 -0.4880000000000003,-0.32400000000000045 c-0.2430000000000002,-0.10500000000000002 -0.454,-0.15900000000000022 -0.6420000000000009,-0.1490000000000002 c-0.1850000000000002,0.009000000000000022 -0.3490000000000006,0.0650000000000001 -0.4950000000000004,0.17300000000000001 c-0.14700000000000019,0.10200000000000002 -0.28,0.2450000000000002 -0.3990000000000005,0.4380000000000004 c-0.11500000000000012,0.18800000000000022 -0.232,0.406 -0.3400000000000005,0.6520000000000009 l-0.126,0.277 c-0.0630000000000001,0.1500000000000002 0,0.271 0.19600000000000026,0.3550000000000003 l1.6880000000000006,0.7520000000000008 c0.20400000000000001,0.09100000000000018 0.38700000000000045,-0.05300000000000008 0.552,-0.4200000000000003 L53.348101544380185,39.82310050678253 z" id="svg_30"/>
		<path fill="#FFFFFF" d="M10.728101544380188,22.147100506782532 l-0.232,-0.1240000000000001 c0.24000000000000019,-0.456 0.15500000000000022,-0.793 -0.264,-1.012 l-3.378,-1.788 c-0.459,-0.2440000000000002 -0.8180000000000006,-0.11900000000000013 -1.078,0.3750000000000004 l-0.232,-0.125 l2.108,-3.989 l1.497,0.6320000000000009 l-0.12100000000000002,0.2840000000000003 c-0.2820000000000003,-0.08900000000000013 -0.523,-0.129 -0.7210000000000006,-0.11500000000000012 c-0.19400000000000026,0.013000000000000022 -0.3650000000000003,0.06700000000000012 -0.512,0.16000000000000025 c-0.1480000000000002,0.0970000000000002 -0.279,0.22800000000000026 -0.3940000000000005,0.3960000000000005 c-0.11400000000000012,0.1680000000000003 -0.231,0.3650000000000003 -0.3530000000000003,0.5940000000000006 l-0.126,0.234 c-0.16500000000000026,0.3140000000000004 -0.14100000000000001,0.53 0.06900000000000013,0.6430000000000009 l1.37,0.7240000000000006 c0.19300000000000025,0.101 0.3670000000000003,0.003000000000000007 0.521,-0.2920000000000003 l0.0640000000000001,-0.11600000000000013 c0.09000000000000016,-0.17200000000000001 0.1490000000000002,-0.3110000000000004 0.1790000000000002,-0.4240000000000003 c0.02700000000000005,-0.1100000000000001 0.02700000000000005,-0.20900000000000019 -0.004000000000000006,-0.2980000000000003 c-0.02500000000000004,-0.09000000000000016 -0.08500000000000013,-0.17500000000000004 -0.17,-0.26 c-0.08300000000000012,-0.08400000000000012 -0.1990000000000003,-0.1840000000000002 -0.3420000000000005,-0.3000000000000003 l0.14,-0.265 l1.982,1.049 l-0.138,0.265 l-0.15700000000000022,-0.08200000000000011 c-0.07100000000000002,-0.04000000000000005 -0.1530000000000002,-0.07100000000000002 -0.2420000000000002,-0.0940000000000002 c-0.09100000000000018,-0.026000000000000047 -0.18700000000000022,-0.026000000000000047 -0.2930000000000003,0 c-0.1,0.024000000000000025 -0.20700000000000018,0.08600000000000013 -0.3180000000000004,0.1830000000000002 c-0.1110000000000001,0.0970000000000002 -0.22400000000000025,0.254 -0.3360000000000005,0.466 l-0.18800000000000022,0.3590000000000003 c-0.04900000000000006,0.08900000000000013 0.004000000000000006,0.1790000000000002 0.15900000000000022,0.261 l1.423,0.7520000000000008 c0.4160000000000003,0.22100000000000022 0.7620000000000009,0.06200000000000009 1.045,-0.4720000000000003 l0.23500000000000001,0.1230000000000001 L10.728101544380188,22.147100506782532 z" id="svg_31"/>
		<path fill="#FFFFFF" d="M17.498101544380187,12.297100506782531 c0.04900000000000006,0.05300000000000008 0.0930000000000002,0.1240000000000001 0.14200000000000004,0.22100000000000022 c0.04300000000000007,0.0930000000000002 0.07100000000000002,0.19800000000000026 0.08300000000000012,0.3050000000000003 c0.010000000000000012,0.1100000000000001 0.003000000000000007,0.22500000000000026 -0.023000000000000048,0.3360000000000005 c-0.02700000000000005,0.11400000000000012 -0.08700000000000013,0.2130000000000002 -0.17600000000000018,0.2970000000000003 c-0.261,0.2440000000000002 -0.4940000000000003,0.3780000000000004 -0.7000000000000006,0.4090000000000003 c-0.20800000000000018,0.030000000000000047 -0.4320000000000004,-0.02700000000000005 -0.677000000000001,-0.1680000000000003 c-0.20400000000000001,-0.1120000000000001 -0.4180000000000003,-0.23900000000000018 -0.6470000000000009,-0.3770000000000004 c-0.22400000000000025,-0.138 -0.44400000000000045,-0.254 -0.662000000000001,-0.3420000000000005 c-0.21900000000000022,-0.09200000000000018 -0.4260000000000003,-0.137 -0.6280000000000008,-0.14700000000000019 c-0.202,-0.010000000000000012 -0.3780000000000004,0.05900000000000007 -0.531,0.20500000000000004 l-0.19100000000000025,0.1790000000000002 c-0.11800000000000013,0.1090000000000001 -0.16100000000000025,0.19500000000000026 -0.133,0.258 l1.308,1.3920000000000001 c0.258,0.279 0.5860000000000006,0.232 0.979,-0.137 l0.1790000000000002,0.19200000000000025 l-1.81,1.6980000000000008 l-0.1790000000000002,-0.19400000000000026 c0.3780000000000004,-0.3490000000000006 0.4330000000000004,-0.668000000000001 0.17200000000000001,-0.9440000000000006 l-2.848,-3.037 c-0.255,-0.273 -0.5870000000000006,-0.22200000000000025 -0.994,0.16200000000000025 l-0.18700000000000022,-0.2 l0.803,-0.7520000000000008 c0.14200000000000004,-0.132 0.259,-0.2450000000000002 0.3550000000000003,-0.3390000000000005 c0.0950000000000002,-0.0960000000000002 0.19000000000000022,-0.18800000000000022 0.276,-0.278 c0.08900000000000013,-0.09000000000000016 0.1850000000000002,-0.18700000000000022 0.2870000000000003,-0.2880000000000003 c0.10300000000000002,-0.0980000000000002 0.23,-0.22000000000000022 0.3790000000000004,-0.3590000000000003 c0.1840000000000002,-0.17500000000000004 0.38200000000000045,-0.3100000000000004 0.5960000000000006,-0.4080000000000003 c0.2120000000000002,-0.1 0.4210000000000003,-0.15700000000000022 0.6260000000000008,-0.17400000000000004 c0.20600000000000004,-0.017000000000000032 0.405,0.008000000000000012 0.5950000000000006,0.07100000000000002 c0.18700000000000022,0.0650000000000001 0.3520000000000003,0.17200000000000001 0.4920000000000003,0.32100000000000045 c0.14200000000000004,0.1510000000000002 0.23700000000000004,0.3100000000000004 0.2890000000000003,0.4780000000000003 c0.05500000000000005,0.1670000000000003 0.06800000000000012,0.3390000000000005 0.05000000000000007,0.519 c-0.021000000000000033,0.1830000000000002 -0.07100000000000002,0.3660000000000003 -0.1520000000000002,0.553 c-0.0780000000000001,0.18800000000000022 -0.19000000000000022,0.3790000000000004 -0.32200000000000045,0.5690000000000006 l0.018000000000000023,0.020000000000000025 c0.2980000000000003,-0.0930000000000002 0.5830000000000006,-0.13 0.8570000000000008,-0.1120000000000001 c0.271,0.022000000000000047 0.4960000000000004,0.0780000000000001 0.671000000000001,0.17300000000000001 c0.1080000000000001,0.06100000000000008 0.231,0.137 0.3780000000000004,0.22300000000000025 c0.1480000000000002,0.08900000000000013 0.2930000000000003,0.16400000000000026 0.4390000000000004,0.22800000000000026 c0.14600000000000019,0.06700000000000012 0.2820000000000003,0.1080000000000001 0.4100000000000003,0.127 c0.133,0.019000000000000024 0.23900000000000018,-0.013000000000000022 0.32600000000000046,-0.0930000000000002 c0.10300000000000002,-0.0970000000000002 0.08700000000000013,-0.261 -0.04600000000000009,-0.5 L17.498101544380187,12.297100506782531 zM13.541101544380187,12.693100506782532 c0.126,-0.11800000000000013 0.2430000000000002,-0.2440000000000002 0.3470000000000006,-0.3730000000000004 c0.10500000000000002,-0.13 0.17500000000000004,-0.269 0.2120000000000002,-0.4180000000000003 c0.03800000000000001,-0.14600000000000019 0.035,-0.3020000000000003 -0.013000000000000022,-0.4710000000000003 c-0.04600000000000009,-0.16400000000000026 -0.16300000000000026,-0.3430000000000005 -0.3420000000000005,-0.534 c-0.1530000000000002,-0.16400000000000026 -0.3080000000000004,-0.271 -0.468,-0.32400000000000045 c-0.15700000000000022,-0.052000000000000074 -0.3090000000000004,-0.06700000000000012 -0.46,-0.04500000000000008 c-0.1500000000000002,0.026000000000000047 -0.2930000000000003,0.0790000000000001 -0.4280000000000003,0.15700000000000022 c-0.135,0.0790000000000001 -0.257,0.1670000000000003 -0.3650000000000003,0.269 l-0.3050000000000003,0.2880000000000003 c-0.16500000000000026,0.1520000000000002 -0.13,0.3500000000000003 0.0940000000000002,0.5890000000000006 l1.149,1.225 c0.0780000000000001,0.04900000000000006 0.15700000000000022,0.03300000000000005 0.2440000000000002,-0.04900000000000006 L13.541101544380187,12.693100506782532 z" id="svg_32"/>
		<path fill="#FFFFFF" d="M19.466101544380187,12.048100506782532 l-0.10500000000000002,-0.2430000000000002 c0.4930000000000003,-0.2170000000000002 0.665000000000001,-0.4980000000000004 0.512,-0.8490000000000006 L18.27810154438019,7.295100506782532 c-0.19800000000000026,-0.451 -0.561,-0.5640000000000006 -1.093,-0.33100000000000046 l-0.1070000000000001,-0.24000000000000019 l4.244,-1.85 l0.7220000000000006,1.48 l-0.23700000000000004,0.14300000000000004 c-0.17300000000000001,-0.27 -0.3450000000000006,-0.466 -0.512,-0.5830000000000006 c-0.1670000000000003,-0.12000000000000002 -0.3360000000000005,-0.19000000000000022 -0.508,-0.20800000000000018 c-0.17200000000000001,-0.017000000000000032 -0.3470000000000006,0.006000000000000014 -0.53,0.07 c-0.18700000000000022,0.0630000000000001 -0.38200000000000045,0.14100000000000001 -0.5920000000000006,0.22900000000000026 L19.43810154438019,6.108100506782532 c-0.4070000000000003,0.17500000000000004 -0.56,0.38600000000000045 -0.455,0.6260000000000008 l0.6310000000000008,1.447 c0.06900000000000013,0.16000000000000025 0.1690000000000003,0.2140000000000002 0.2990000000000003,0.15700000000000022 l0.273,-0.12100000000000002 C20.31910154438019,8.161100506782532 20.443101544380188,8.102100506782532 20.553101544380187,8.035100506782532 c0.1110000000000001,-0.0630000000000001 0.19700000000000026,-0.14200000000000004 0.261,-0.23700000000000004 c0.0640000000000001,-0.0950000000000002 0.0980000000000002,-0.2150000000000002 0.10400000000000002,-0.3530000000000003 c0.006000000000000014,-0.14300000000000004 -0.024000000000000025,-0.3160000000000004 -0.08600000000000013,-0.523 l0.2970000000000003,-0.13 l0.909,2.09 l-0.2970000000000003,0.13 c-0.1080000000000001,-0.18900000000000022 -0.20800000000000018,-0.3340000000000005 -0.3010000000000003,-0.4320000000000004 c-0.0950000000000002,-0.0950000000000002 -0.19300000000000025,-0.15600000000000022 -0.3020000000000003,-0.1830000000000002 c-0.1080000000000001,-0.030000000000000047 -0.22600000000000026,-0.026000000000000047 -0.3510000000000003,0.007000000000000014 c-0.126,0.03400000000000006 -0.276,0.08800000000000013 -0.44800000000000045,0.16100000000000025 l-0.0970000000000002,0.044000000000000074 c-0.2480000000000002,0.1080000000000001 -0.33100000000000046,0.24900000000000022 -0.255,0.4260000000000003 l0.670000000000001,1.542 c0.135,0.3060000000000003 0.4160000000000003,0.3650000000000003 0.8480000000000006,0.1790000000000002 l0.25,-0.1100000000000001 c0.3370000000000005,-0.14700000000000019 0.5990000000000006,-0.2930000000000003 0.784,-0.4320000000000004 c0.18800000000000022,-0.14100000000000001 0.31900000000000045,-0.2930000000000003 0.4,-0.462 c0.08200000000000011,-0.1680000000000003 0.1220000000000001,-0.3520000000000003 0.131,-0.553 c0.004000000000000006,-0.19800000000000026 -0.005000000000000007,-0.4290000000000003 -0.021000000000000033,-0.6900000000000012 l0.2460000000000002,-0.030000000000000047 l0.4800000000000003,1.6910000000000007 L19.466101544380187,12.048100506782532 z" id="svg_33"/>
		<path fill="#FFFFFF" d="M25.96510154438019,9.634100506782532 l-0.019000000000000024,-0.263 c0.538,-0.03900000000000005 0.794,-0.2480000000000002 0.7670000000000009,-0.6310000000000008 L26.43210154438019,4.761100506782531 c-0.035,-0.4930000000000003 -0.3410000000000005,-0.7190000000000006 -0.918,-0.680000000000001 l-0.019000000000000024,-0.263 l4.616,-0.32500000000000046 l0.1840000000000002,1.6380000000000003 l-0.27,0.05500000000000005 c-0.07300000000000002,-0.3130000000000004 -0.171,-0.552 -0.2880000000000003,-0.7190000000000006 c-0.11800000000000013,-0.17200000000000001 -0.254,-0.2920000000000003 -0.4100000000000003,-0.3660000000000003 c-0.15600000000000022,-0.07500000000000002 -0.32700000000000046,-0.1120000000000001 -0.523,-0.11400000000000012 c-0.19400000000000026,0 -0.4070000000000003,0.007000000000000014 -0.6340000000000009,0.021000000000000033 l-0.2470000000000002,0.019000000000000024 c-0.4430000000000004,0.03300000000000005 -0.6560000000000009,0.1800000000000002 -0.6380000000000009,0.4430000000000004 l0.1090000000000001,1.57 c0.015000000000000022,0.17400000000000004 0.08700000000000013,0.258 0.22900000000000026,0.2480000000000002 l0.3000000000000003,-0.022000000000000047 c0.14600000000000019,-0.007000000000000014 0.281,-0.026000000000000047 0.4080000000000003,-0.04800000000000005 c0.1220000000000001,-0.02500000000000004 0.232,-0.07200000000000002 0.32500000000000046,-0.139 C28.74810154438019,6.012100506782532 28.820101544380186,5.911100506782532 28.872101544380186,5.781100506782532 c0.052000000000000074,-0.128 0.08300000000000012,-0.3040000000000003 0.08900000000000013,-0.523 l0.32500000000000046,-0.022000000000000047 L29.448101544380187,7.510100506782532 l-0.32600000000000046,0.024000000000000025 c-0.03700000000000001,-0.2140000000000002 -0.08700000000000013,-0.38400000000000045 -0.14200000000000004,-0.506 c-0.05400000000000009,-0.1230000000000001 -0.128,-0.2140000000000002 -0.22000000000000022,-0.275 c-0.0930000000000002,-0.060000000000000074 -0.20500000000000004,-0.0970000000000002 -0.3330000000000005,-0.1090000000000001 C28.296101544380186,6.629100506782533 28.13810154438019,6.6311005067825315 27.948101544380187,6.643100506782532 L27.847101544380187,6.651100506782532 c-0.271,0.021000000000000033 -0.4,0.125 -0.38500000000000045,0.31900000000000045 l0.12000000000000002,1.6740000000000008 c0.021000000000000033,0.3340000000000005 0.266,0.4850000000000003 0.7360000000000008,0.454 l0.271,-0.018000000000000023 c0.3680000000000003,-0.03100000000000005 0.664000000000001,-0.0760000000000001 0.8840000000000009,-0.1500000000000002 c0.22000000000000022,-0.07100000000000002 0.3980000000000005,-0.17200000000000001 0.53,-0.3010000000000003 c0.132,-0.13 0.23600000000000004,-0.2890000000000003 0.3080000000000004,-0.4760000000000003 c0.07,-0.18700000000000022 0.14400000000000004,-0.4070000000000003 0.2120000000000002,-0.658000000000001 l0.2430000000000002,0.05400000000000009 l-0.11700000000000013,1.7550000000000003 L25.96510154438019,9.634100506782532 z" id="svg_34"/>
		<path fill="#FFFFFF" d="M32.872101544380186,9.446100506782532 l0.07500000000000002,-0.251 c0.1690000000000003,0.04900000000000006 0.3060000000000003,0.08300000000000012 0.4120000000000003,0.0940000000000002 c0.1100000000000001,0.016000000000000025 0.201,0.004000000000000006 0.275,-0.03300000000000005 c0.07300000000000002,-0.03400000000000006 0.135,-0.10200000000000002 0.18700000000000022,-0.202 c0.05100000000000007,-0.0970000000000002 0.1,-0.22900000000000026 0.1510000000000002,-0.3970000000000005 l1.047,-3.5 c0.05800000000000007,-0.19800000000000026 0.08600000000000013,-0.3480000000000006 0.08800000000000013,-0.454 c0.002000000000000003,-0.1070000000000001 -0.02500000000000004,-0.19200000000000025 -0.0770000000000001,-0.251 c-0.05800000000000007,-0.0630000000000001 -0.134,-0.11600000000000013 -0.23700000000000004,-0.16200000000000025 c-0.101,-0.04100000000000005 -0.22300000000000025,-0.10200000000000002 -0.3650000000000003,-0.17800000000000019 l0.0800000000000001,-0.264 c0.1070000000000001,0.05100000000000007 0.22300000000000025,0.0960000000000002 0.3460000000000006,0.135 c0.1230000000000001,0.04100000000000005 0.24900000000000022,0.0800000000000001 0.3800000000000004,0.11800000000000013 c0.16600000000000026,0.05000000000000007 0.32700000000000046,0.0950000000000002 0.4750000000000003,0.135 c0.1530000000000002,0.04100000000000005 0.2990000000000003,0.0760000000000001 0.44400000000000045,0.1090000000000001 c0.1500000000000002,0.035 0.2990000000000003,0.07300000000000002 0.456,0.11400000000000012 c0.15700000000000022,0.04000000000000005 0.32600000000000046,0.08800000000000013 0.504,0.14200000000000004 c0.4760000000000003,0.14200000000000004 0.8800000000000008,0.3330000000000005 1.213,0.5730000000000006 c0.3330000000000005,0.2410000000000002 0.5900000000000006,0.519 0.771,0.8360000000000006 c0.1800000000000002,0.3160000000000004 0.2860000000000003,0.673000000000001 0.3130000000000004,1.063 c0.024000000000000025,0.39000000000000046 -0.02700000000000005,0.807 -0.15600000000000022,1.243 c-0.13,0.4260000000000003 -0.3080000000000004,0.792 -0.541,1.099 c-0.232,0.3020000000000003 -0.521,0.533 -0.8720000000000008,0.6940000000000012 c-0.3500000000000003,0.15800000000000022 -0.7610000000000009,0.23900000000000018 -1.233,0.2410000000000002 c-0.4730000000000003,0.003000000000000007 -1.015,-0.08300000000000012 -1.621,-0.268 L32.872101544380186,9.446100506782532 zM35.60010154438019,9.905100506782532 c0.663000000000001,0.19800000000000026 1.215,0.14600000000000019 1.6510000000000002,-0.1520000000000002 c0.4400000000000004,-0.3030000000000003 0.787,-0.8780000000000008 1.042,-1.726 c0.252,-0.8410000000000006 0.257,-1.5190000000000001 0.019000000000000024,-2.028 c-0.2410000000000002,-0.507 -0.6980000000000012,-0.8650000000000008 -1.379,-1.07 l-0.3380000000000005,-0.0990000000000002 c-0.101,-0.03100000000000005 -0.18800000000000022,-0.05000000000000007 -0.258,-0.06200000000000009 c-0.07,-0.015000000000000022 -0.131,-0.007000000000000014 -0.1790000000000002,0.019000000000000024 c-0.05000000000000007,0.023000000000000048 -0.0940000000000002,0.06700000000000012 -0.13,0.13 c-0.04000000000000005,0.06200000000000009 -0.0770000000000001,0.1540000000000002 -0.1100000000000001,0.271 l-1.131,3.776 c-0.04300000000000007,0.1500000000000002 -0.0660000000000001,0.276 -0.0660000000000001,0.3690000000000003 c0,0.0930000000000002 0.021000000000000033,0.171 0.0660000000000001,0.232 c0.044000000000000074,0.05900000000000007 0.11700000000000013,0.1070000000000001 0.20900000000000019,0.14500000000000018 c0.0940000000000002,0.03800000000000001 0.2130000000000002,0.0770000000000001 0.3510000000000003,0.11700000000000013 L35.60010154438019,9.905100506782532 z" id="svg_35"/>
		<path fill="#FFFFFF" d="M41.86510154438019,13.549100506782532 c-0.3320000000000005,-0.25 -0.5930000000000006,-0.542 -0.783,-0.8770000000000008 c-0.18800000000000022,-0.3340000000000005 -0.3030000000000003,-0.6900000000000012 -0.3440000000000005,-1.061 c-0.04100000000000005,-0.3690000000000003 -0.011000000000000022,-0.7460000000000008 0.0960000000000002,-1.126 c0.10300000000000002,-0.3780000000000004 0.281,-0.7360000000000008 0.53,-1.069 c0.232,-0.3110000000000004 0.512,-0.5710000000000006 0.8380000000000006,-0.784 c0.32900000000000046,-0.2130000000000002 0.677000000000001,-0.3580000000000003 1.051,-0.4350000000000004 c0.3710000000000004,-0.0760000000000001 0.7530000000000008,-0.0800000000000001 1.141,-0.002000000000000003 c0.38700000000000045,0.07100000000000002 0.7560000000000008,0.24000000000000019 1.102,0.5 c0.3430000000000005,0.254 0.6150000000000008,0.549 0.8130000000000006,0.8860000000000009 c0.2,0.3350000000000005 0.32500000000000046,0.6910000000000012 0.3740000000000004,1.06 c0.05100000000000007,0.3700000000000004 0.024000000000000025,0.7430000000000008 -0.0760000000000001,1.124 c-0.0990000000000002,0.3790000000000004 -0.279,0.7400000000000008 -0.532,1.084 c-0.22900000000000026,0.3010000000000003 -0.508,0.556 -0.8410000000000006,0.7670000000000009 c-0.3350000000000005,0.2120000000000002 -0.6910000000000012,0.3580000000000003 -1.068,0.4380000000000004 c-0.3800000000000004,0.0800000000000001 -0.7680000000000009,0.08200000000000011 -1.1640000000000001,0.007000000000000014 C42.601101544380185,13.986100506782531 42.223101544380185,13.815100506782532 41.86510154438019,13.549100506782532 M42.12710154438019,13.315100506782532 c0.264,0.19500000000000026 0.531,0.3120000000000004 0.802,0.3420000000000005 c0.27,0.030000000000000047 0.539,-0.006000000000000014 0.804,-0.1080000000000001 c0.267,-0.1 0.526,-0.258 0.78,-0.4740000000000003 c0.251,-0.21800000000000022 0.4910000000000003,-0.4770000000000003 0.7160000000000006,-0.775 c0.20900000000000019,-0.281 0.38600000000000045,-0.5770000000000006 0.524,-0.8830000000000009 c0.133,-0.3090000000000004 0.2150000000000002,-0.6100000000000008 0.2420000000000002,-0.909 c0.026000000000000047,-0.2970000000000003 -0.018000000000000023,-0.5870000000000006 -0.128,-0.8640000000000008 c-0.1110000000000001,-0.276 -0.3130000000000004,-0.525 -0.6040000000000006,-0.7440000000000008 c-0.27,-0.19700000000000026 -0.538,-0.3100000000000004 -0.8140000000000006,-0.3320000000000005 c-0.271,-0.022000000000000047 -0.539,0.026000000000000047 -0.802,0.135 c-0.261,0.1110000000000001 -0.516,0.278 -0.7550000000000008,0.5 c-0.2440000000000002,0.22000000000000022 -0.4690000000000003,0.4720000000000003 -0.680000000000001,0.7520000000000008 c-0.23,0.3120000000000004 -0.4170000000000003,0.6220000000000008 -0.555,0.936 c-0.138,0.3130000000000004 -0.2170000000000002,0.6160000000000008 -0.23900000000000018,0.907 c-0.021000000000000033,0.2920000000000003 0.02700000000000005,0.5680000000000006 0.14,0.8270000000000006 C41.671101544380186,12.884100506782532 41.860101544380186,13.115100506782532 42.12710154438019,13.315100506782532 " id="svg_36"/>
		<path fill="#FFFFFF" d="M47.67910154438019,19.964100506782533 l0.22400000000000025,-0.14 c0.271,0.4410000000000004 0.5910000000000006,0.549 0.9540000000000006,0.32100000000000045 l3.444,-2.207 l-5.234,1.038 l-0.131,-0.20700000000000018 l3.125,-4.297 l-3.315,2.015 c-0.4410000000000004,0.267 -0.507,0.6510000000000009 -0.19800000000000026,1.1560000000000001 l-0.22500000000000026,0.137 l-1.116,-1.8 l0.22400000000000025,-0.139 c0.28,0.453 0.670000000000001,0.541 1.166,0.271 l3.378,-2.011 l0.0760000000000001,-0.04500000000000008 c0.05400000000000009,-0.03700000000000001 0.10200000000000002,-0.07200000000000002 0.138,-0.1110000000000001 c0.03700000000000001,-0.04200000000000006 0.05600000000000005,-0.10200000000000002 0.060000000000000074,-0.17400000000000004 c0.002000000000000003,-0.07300000000000002 -0.019000000000000024,-0.16600000000000026 -0.0640000000000001,-0.276 c-0.04300000000000007,-0.1100000000000001 -0.11900000000000013,-0.2480000000000002 -0.22400000000000025,-0.4190000000000003 l0.22400000000000025,-0.14100000000000001 l0.9560000000000006,1.542 l-2.856,3.862 l4.6880000000000015,-0.908 l0.9390000000000006,1.518 l-0.22600000000000026,0.138 c-0.1,-0.16400000000000026 -0.19300000000000025,-0.2860000000000003 -0.272,-0.3670000000000003 c-0.08300000000000012,-0.0790000000000001 -0.15900000000000022,-0.13 -0.22900000000000026,-0.1530000000000002 c-0.07200000000000002,-0.019000000000000024 -0.14,-0.019000000000000024 -0.20500000000000004,0.002000000000000003 c-0.0630000000000001,0.021000000000000033 -0.1230000000000001,0.05000000000000007 -0.1810000000000002,0.08700000000000013 l-3.41,2.229 c-0.3990000000000005,0.2460000000000002 -0.459,0.5970000000000006 -0.17800000000000019,1.051 l-0.22400000000000025,0.137 L47.67910154438019,19.964100506782533 z" id="svg_37"/>
	</g>
</g></g></svg>